<mxfile host="app.diagrams.net" modified="2023-09-26T15:31:50.799Z" agent="Mozilla/5.0 (Macintosh; Intel Mac OS X 10_15_7) AppleWebKit/537.36 (KHTML, like Gecko) Chrome/117.0.0.0 Safari/537.36" etag="eoFes3PMkDHGFjlrNMbo" version="21.8.2" type="github">
  <diagram name="第 1 页" id="nxVLYq91F7wsiuUnhk14">
    <mxGraphModel dx="910" dy="453" grid="1" gridSize="10" guides="1" tooltips="1" connect="1" arrows="1" fold="1" page="1" pageScale="1" pageWidth="827" pageHeight="1169" math="0" shadow="0">
      <root>
        <mxCell id="0" />
        <mxCell id="1" parent="0" />
        <mxCell id="7EpLP6rBN361UlgcV5uS-1" value="" style="rounded=0;whiteSpace=wrap;html=1;" parent="1" vertex="1">
          <mxGeometry x="810" y="80" width="660" height="580" as="geometry" />
        </mxCell>
        <mxCell id="7EpLP6rBN361UlgcV5uS-3" value="新建场景" style="text;html=1;strokeColor=none;fillColor=none;align=center;verticalAlign=middle;whiteSpace=wrap;rounded=0;" parent="1" vertex="1">
          <mxGeometry x="810" y="40" width="80" height="30" as="geometry" />
        </mxCell>
        <mxCell id="7EpLP6rBN361UlgcV5uS-24" value="提交" style="rounded=1;whiteSpace=wrap;html=1;" parent="1" vertex="1">
          <mxGeometry x="1360" y="585" width="70" height="40" as="geometry" />
        </mxCell>
        <mxCell id="7EpLP6rBN361UlgcV5uS-25" value="取消" style="rounded=1;whiteSpace=wrap;html=1;" parent="1" vertex="1">
          <mxGeometry x="1250" y="585" width="70" height="40" as="geometry" />
        </mxCell>
        <mxCell id="7EpLP6rBN361UlgcV5uS-26" value="" style="rounded=0;whiteSpace=wrap;html=1;" parent="1" vertex="1">
          <mxGeometry x="40" y="80" width="700" height="580" as="geometry" />
        </mxCell>
        <mxCell id="7EpLP6rBN361UlgcV5uS-27" value="场景列表" style="text;html=1;strokeColor=none;fillColor=none;align=center;verticalAlign=middle;whiteSpace=wrap;rounded=0;" parent="1" vertex="1">
          <mxGeometry x="40" y="50" width="60" height="30" as="geometry" />
        </mxCell>
        <mxCell id="7EpLP6rBN361UlgcV5uS-28" value="场景id" style="text;html=1;strokeColor=none;fillColor=none;align=center;verticalAlign=middle;whiteSpace=wrap;rounded=0;" parent="1" vertex="1">
          <mxGeometry x="80" y="190" width="60" height="30" as="geometry" />
        </mxCell>
        <mxCell id="7EpLP6rBN361UlgcV5uS-29" value="名称" style="text;html=1;strokeColor=none;fillColor=none;align=center;verticalAlign=middle;whiteSpace=wrap;rounded=0;" parent="1" vertex="1">
          <mxGeometry x="180" y="190" width="60" height="30" as="geometry" />
        </mxCell>
        <mxCell id="7EpLP6rBN361UlgcV5uS-30" value="场景类型" style="text;html=1;strokeColor=none;fillColor=none;align=center;verticalAlign=middle;whiteSpace=wrap;rounded=0;" parent="1" vertex="1">
          <mxGeometry x="280" y="190" width="60" height="30" as="geometry" />
        </mxCell>
        <mxCell id="7EpLP6rBN361UlgcV5uS-31" value="创建人" style="text;html=1;strokeColor=none;fillColor=none;align=center;verticalAlign=middle;whiteSpace=wrap;rounded=0;" parent="1" vertex="1">
          <mxGeometry x="370" y="190" width="60" height="30" as="geometry" />
        </mxCell>
        <mxCell id="7EpLP6rBN361UlgcV5uS-32" value="创建时间" style="text;html=1;strokeColor=none;fillColor=none;align=center;verticalAlign=middle;whiteSpace=wrap;rounded=0;" parent="1" vertex="1">
          <mxGeometry x="470" y="190" width="60" height="30" as="geometry" />
        </mxCell>
        <mxCell id="7EpLP6rBN361UlgcV5uS-33" value="操作" style="text;html=1;strokeColor=none;fillColor=none;align=center;verticalAlign=middle;whiteSpace=wrap;rounded=0;" parent="1" vertex="1">
          <mxGeometry x="580" y="190" width="60" height="30" as="geometry" />
        </mxCell>
        <mxCell id="7EpLP6rBN361UlgcV5uS-36" value="" style="line;strokeWidth=2;html=1;" parent="1" vertex="1">
          <mxGeometry x="40" y="225" width="700" height="10" as="geometry" />
        </mxCell>
        <mxCell id="7EpLP6rBN361UlgcV5uS-37" value="7150002" style="text;html=1;strokeColor=none;fillColor=none;align=center;verticalAlign=middle;whiteSpace=wrap;rounded=0;" parent="1" vertex="1">
          <mxGeometry x="70" y="250" width="60" height="30" as="geometry" />
        </mxCell>
        <mxCell id="7EpLP6rBN361UlgcV5uS-38" value="法务场景" style="text;html=1;strokeColor=none;fillColor=none;align=center;verticalAlign=middle;whiteSpace=wrap;rounded=0;" parent="1" vertex="1">
          <mxGeometry x="170" y="250" width="60" height="30" as="geometry" />
        </mxCell>
        <mxCell id="7EpLP6rBN361UlgcV5uS-39" value="独立模块" style="text;html=1;strokeColor=none;fillColor=none;align=center;verticalAlign=middle;whiteSpace=wrap;rounded=0;" parent="1" vertex="1">
          <mxGeometry x="280" y="250" width="60" height="30" as="geometry" />
        </mxCell>
        <mxCell id="7EpLP6rBN361UlgcV5uS-40" value="予行(359847)" style="text;html=1;strokeColor=none;fillColor=none;align=center;verticalAlign=middle;whiteSpace=wrap;rounded=0;" parent="1" vertex="1">
          <mxGeometry x="370" y="250" width="60" height="30" as="geometry" />
        </mxCell>
        <mxCell id="7EpLP6rBN361UlgcV5uS-41" value="2023-02-15 16:52:02" style="text;html=1;strokeColor=none;fillColor=none;align=center;verticalAlign=middle;whiteSpace=wrap;rounded=0;" parent="1" vertex="1">
          <mxGeometry x="450" y="250" width="120" height="30" as="geometry" />
        </mxCell>
        <mxCell id="7EpLP6rBN361UlgcV5uS-43" value="详情" style="rounded=1;whiteSpace=wrap;html=1;" parent="1" vertex="1">
          <mxGeometry x="595" y="255" width="50" height="20" as="geometry" />
        </mxCell>
        <mxCell id="7EpLP6rBN361UlgcV5uS-58" value="新建场景" style="rounded=1;whiteSpace=wrap;html=1;" parent="1" vertex="1">
          <mxGeometry x="660" y="150" width="70" height="30" as="geometry" />
        </mxCell>
        <mxCell id="7EpLP6rBN361UlgcV5uS-59" value="查询" style="rounded=1;whiteSpace=wrap;html=1;" parent="1" vertex="1">
          <mxGeometry x="575" y="150" width="70" height="30" as="geometry" />
        </mxCell>
        <mxCell id="7EpLP6rBN361UlgcV5uS-60" value="" style="rounded=0;whiteSpace=wrap;html=1;" parent="1" vertex="1">
          <mxGeometry x="112.5" y="90" width="85" height="30" as="geometry" />
        </mxCell>
        <mxCell id="7EpLP6rBN361UlgcV5uS-61" value="场景名称" style="text;html=1;strokeColor=none;fillColor=none;align=center;verticalAlign=middle;whiteSpace=wrap;rounded=0;" parent="1" vertex="1">
          <mxGeometry x="52.5" y="90" width="60" height="30" as="geometry" />
        </mxCell>
        <mxCell id="7EpLP6rBN361UlgcV5uS-62" value="" style="rounded=0;whiteSpace=wrap;html=1;" parent="1" vertex="1">
          <mxGeometry x="277.5" y="90" width="85" height="30" as="geometry" />
        </mxCell>
        <mxCell id="7EpLP6rBN361UlgcV5uS-63" value="场景id" style="text;html=1;strokeColor=none;fillColor=none;align=center;verticalAlign=middle;whiteSpace=wrap;rounded=0;" parent="1" vertex="1">
          <mxGeometry x="217.5" y="90" width="60" height="30" as="geometry" />
        </mxCell>
        <mxCell id="7EpLP6rBN361UlgcV5uS-64" value="" style="rounded=0;whiteSpace=wrap;html=1;" parent="1" vertex="1">
          <mxGeometry x="452.5" y="90" width="85" height="30" as="geometry" />
        </mxCell>
        <mxCell id="7EpLP6rBN361UlgcV5uS-65" value="负责人" style="text;html=1;strokeColor=none;fillColor=none;align=center;verticalAlign=middle;whiteSpace=wrap;rounded=0;" parent="1" vertex="1">
          <mxGeometry x="392.5" y="90" width="60" height="30" as="geometry" />
        </mxCell>
        <mxCell id="0yhwp-KFFrAcIyemLmU7-2" value="模块场景主要用于一整个独立业务的研发。独立模块场景把模块当成一个轻应用来看待，有点像多个应用合并部署到一个进程，只不过公共的东西下沉到基座。场景会唯一关联一个模块，并将模块的服务以原来的语义发布出来。通过创建一个独立模块，会自动创建一个独立模块类型的场景" style="rounded=0;whiteSpace=wrap;html=1;" parent="1" vertex="1">
          <mxGeometry x="840" y="120" width="600" height="50" as="geometry" />
        </mxCell>
        <mxCell id="0yhwp-KFFrAcIyemLmU7-3" value="模块英文名称" style="text;html=1;strokeColor=none;fillColor=none;align=center;verticalAlign=middle;whiteSpace=wrap;rounded=0;" parent="1" vertex="1">
          <mxGeometry x="840" y="215" width="110" height="30" as="geometry" />
        </mxCell>
        <mxCell id="0yhwp-KFFrAcIyemLmU7-4" value="模块中文名称" style="text;html=1;strokeColor=none;fillColor=none;align=center;verticalAlign=middle;whiteSpace=wrap;rounded=0;" parent="1" vertex="1">
          <mxGeometry x="840" y="275" width="110" height="30" as="geometry" />
        </mxCell>
        <mxCell id="0yhwp-KFFrAcIyemLmU7-5" value="模块介绍" style="text;html=1;strokeColor=none;fillColor=none;align=center;verticalAlign=middle;whiteSpace=wrap;rounded=0;" parent="1" vertex="1">
          <mxGeometry x="840" y="340" width="110" height="30" as="geometry" />
        </mxCell>
        <mxCell id="0yhwp-KFFrAcIyemLmU7-6" value="" style="rounded=0;whiteSpace=wrap;html=1;" parent="1" vertex="1">
          <mxGeometry x="950" y="205" width="400" height="30" as="geometry" />
        </mxCell>
        <mxCell id="0yhwp-KFFrAcIyemLmU7-7" value="" style="rounded=0;whiteSpace=wrap;html=1;" parent="1" vertex="1">
          <mxGeometry x="950" y="275" width="400" height="30" as="geometry" />
        </mxCell>
        <mxCell id="0yhwp-KFFrAcIyemLmU7-8" value="" style="rounded=0;whiteSpace=wrap;html=1;" parent="1" vertex="1">
          <mxGeometry x="950" y="340" width="400" height="40" as="geometry" />
        </mxCell>
        <mxCell id="0yhwp-KFFrAcIyemLmU7-10" value="" style="shape=image;verticalLabelPosition=bottom;labelBackgroundColor=default;verticalAlign=top;aspect=fixed;imageAspect=0;image=data:image/png,iVBORw0KGgoAAAANSUhEUgAABLAAAAEyCAYAAADqYSm7AAAAAXNSR0IArs4c6QAAIABJREFUeF7s3Qd4FNUeBfCzm94TIAGS0HsvIghKU1RABSwIWEDFLnYR0WfvveOzoqIPEERARURApIhU6b0lJEBCCek9+75zlw0hJKSwm0A48z6ekEz9zSRz98z/3rHYbDYbNElAAhKQgAQkIAEJSEACEpCABCQgAQlI4AwVsCjAOkPPjHZLAhKQgAQkIAEJSEACEpCABCQgAQlIwAgowNKFIAEJSEACEpCABCQgAQlIQAISkIAEJHBGCyjAOqNPj3ZOAhKQgAQkIAEJSEACEpCABCQgAQlIoNIDrOxcICMHyM4DLAA83AAfd8DNqpMjAQlIQAISkIAEgDwbkHWsvcC/Wy2Alxvg5W7/uyYJSEACEpCABM5tAY7szUyB2UIOswUL4GkFvJUtVKkLo1ICLDY+kzKBuBQgPhU4nAakZtkvsgBPoIYfUJN//AFfD/vXNUlAAhKQgAQkcG4JMLQ6kg4cYHshBTiaYQ+yPKxAiDcQ6g/U8geq+wKebueWjY5WAhKQgAQkIAF7WJWYAcQmA7uPAnsT7VmDuxUI8wMahgB1A+3ZgjezBaGd1QIVGmDxdYfp2cDuBGDzQWBHAsCkNDIACPa2P2FlmLU3GQj0AppUA1qGAnWC7Y1VTRKQgAQkIAEJVH0BtgcYXG07BGw5BOxLtj/gCg+wP9hKz7F/jYFWhD/QNBRoEQpU99FDr6p/degIJSABCUhAAgCzhZRMYNNB4M/dwNw9wPYEe6DFid/nFOIFdI0ALm8EdIkEIgLU2+tsvn4qLMDiBcQkdGUssDkeqO4HXBAJ1Amyp6MFJz5d3XEYWLwXyM4BOkUAHcMVYp3NF5r2XQISkIAEJFAaAYZXsUnAkmjgUBrQtDrQKRwI8T35qSmfuP67H1gXZ3/wdXFDe7tCT1dLI615JCABCUhAAmenAItg+KBrzk5g4kZgTfzx4KrwEbFNwD/BXkD/xsCNbYA2NTUEwdl55ivwLYRp2cDf0cD6OOCiukD72vbxrk41ZeYCi/cA/8QAfZvYcF64a5ukNv4k8AJ3YZ9FbqO49Rf+3qnmLehWEft9tl7g2m8JSEACEjh7BHgbjksFftsG5Np477c/KS3ptnwoFfhxM5CZAwxtY+8yUJqpLPddthAKt0JKfZ8uYtmS9q+06z7VesrfPijqaEvaY31fAhKQgAQkUDECfIA1fTPw39VAVPKpt8l7t6Mai726etcDxnQDmoe6/oGXPV4o/vN/xWhVra1USAUWy/g2xQN/7AR61gfOCy+5Mepg5kmfvwtYHA3cdb59rItTTWlpaTh48CD8/PwQGBiIhIQEZGRkHFvEBjc3d4SGhsLLy+uE1eTl5WHXrl3IyspCy5Yti9xEcnISDh8+guDgYPMnNiYWbh5uqFG9BrZt24Y6derA398/P6Bau2YtGjRsYPaDU2pqKvbs2YOmTZvCw8PjpO3ze97e3qhVq5b53ubNm1GzZk1Uq1YNVuuJZWpslHKfMzMzsXPnLtSqGYZq1aubbTv+VK1LVUcjAQlIQAJVXSAlC/hjB7A3Cbi+dcn3/IIefFD21WrA3xO4qd3J1d0F583NzcX+/fvMPT8ysi7c3Kxg+4H3Yd6DeY9ng9fN3T3/nr5r925YLRbUr1/frCojI9O0G+rWtd/7HRPvzQcOHDD3bd7DU1PTEBcfh7CwMCQdTYQNNrMNd3d3s8ihQ4dw5MgR0zbglJOTg/j4ePA+HxERccIpZ5smMTERNWrUMNt0BFQFZzIh27HEb+euXWashkaNGplZsrOzERcXZ44tIjKyyMuJ309PT4Ofn7/ZVmRkpGmbaJKABCQgAQmcCQLsrbU4CnhhEbAtoXx7NKQF8EwPIMSn9MvzXs17Nu/tQUFBJS7Ie3RiYhJ27dqJunXrIuFoAho2aAg3Nw3aWSLeKWaokACL41pNXA/UCwL6Ny17n1MGYN/8C6TlAKO6nDopjY2NxdKlS1GvXj2Eh4dj8eLFpsHmH+APW54NMTExGDhwoGmQ7du3zzRYObExy+W2bt2KESNG5DcseYGFhASjWrXq2L59O1atXm3WywYh180gihfk33//jTZt2qBBgwbo0aOH+frTT/8HN954E5o3b262ER0djalTp+KOO+5AQEDACafl8OHD+OWXX8wPRIeOHWCBBVOmTEFYzZq44IIL4OPtbS72kJAQ02Bdt349Nqxbj7T0NKxZswYNGzRArdq1zTr5985duuiH43R+MrSsBCQgAQlUqAArrrYeBKZvsYdXjauVffN8Mcy7fwM3tbWhVc3iq7b5oGv69J+we/dutGzZytxb+UBo+fLl5iEX2wi873bt1s2ERakpKfjwo4/Qp08f1G9QH1F7opCUlIS//voLXbp0MYEU54uMrIPs7Cz8+eefph3Ar61evRo7duww7YP4uHgTYDVp3Bg9e/UyoRa3yXnuuecec8Bsl/y95G/k5uXi8ssvPwFh586dWLJkCdq2bWvaOVyOx2Kf7FVTXGfPHj1M+Pbll1+afWC7hxPDqTm/z0HDRg3NOriPBcMptpdmzJwJT3d3E3D9+++/ZlmapKenw9PTU22Lsl+WWkICEpCABJwowErtZ+YDv+6yj6Fd1ORoARTzbfh7AK/1Bq4pum7FrJLFK1FR0fnFMHzItXHDRrRo2cLc0x29qniP5AMnx4Mpx/7wgRaLXCZNmoRhw4aZ+/dFF12U/8DKiSTn1KpcHmDl5gHr44FpG4FHLrQP1l7SxMAqJgkI9QV8Pe2B1cFUYMwc4JVLi38iy8YkG4K8OBjiNGjYEHPnzjWNrbCaYbDl5eGfpf/g0dGj0bJ5C8z+fbYJtBgIseGaxgqpqCi0atXK7CIbamzYMZhq2qQJ/l66FCtWrDANW1ZV/fPPP2aehg0bYv78+Tiv43lo3rwZLunTx3z99pG3Y9T9o8wFPnPmDMTFxZvlGXCFBAeb9bZp29Zsi+EZAzE+UWV1GAM1Nnj5JJbr5/qY9F577bXmh+Wbb77F5i2b0bBhA2RmZJrv82kvj4dPju8fNQqeharMSnLX9yUgAQlIQAKVJcC3EbPrYI4NGNK6dJXa7ELA8TVZne0YlmD2dmB5LPB0z6LXkZ2VhUWLF+OPP+YgJSXV3D87dOhgqq/4dz4Iq1G9Otq2a4cLL7zQfO3HH380D6EYMh1NPIpFCxchJSUFy5YtQ/v27VGzVi00bdIU7du3M9VXP//8swmHGDLxwRgbsE2bNcP+fftM9XTrVq1wed++JvhasOBPLFq0GE8++aRZ34YNG8z8bJu0bt3aPDTr3r27qeJmYDZv3jwTKPXu3dvsw8qVK0241LhxYxN+8eHcC88/j+i9e/Hee++ZoKpXr16mcuzfNWuw4M8/cfXVV2P//v2mLXPeeeflN8JZ+T19+nR069bNtDl+//13DB8+3LRNZsyYYZwcbaTKuk60XQlIQAISOHcFmBMs3APcOxtIyjrZgX2WOCZmLV+AwxHtTwUycov26h4JjB9ofzlMUdOmTRvx88+/mDyAbQHeaw8dPITAoMD8CixWTLPKedCgQfD18cHX33xjPpPz83peng0HDuw3mcEll1xielexxxbvwS1atDh3T+JpHrnLAyy+dfC37UB2LjCkTcl7yxR16V5g52Hg8iZAmP/xiqv3lwJNawD9mhS9HjbafvvtN/NEkhcHG37r1q0zT1YjIyOQl5uHX2fNwgMPPGAuGgZEDL3YKOXT0sGDB5vwaO/evaYRyaCJYVXNmmHmAmSF1Nq1a01jkFVXrHxiOBYeHoHVq1ehWdNmuG7wdaa6ikEaG479+/fH+eefb6q3+OSTlVpsiB45fBiNGjfG0KFDweqrCRMmmIu903mdsGPnDlOeaH+YaoPNZoGPj7fZLhuVnL744gvT2ObXHBMbxTwmNpofeeSRk7pJlqyvOSQgAQlIQAKVIxCfAoz/F7iuFdCoFNVXyZnAtM1AuD9wUT3A51gDlIHWHTOAT68CgovoGsAHVrxn86kq7+GpqSnHqqy3oVWr1qbbnIe7h2lsBgUHYd68uVi9+l9TDc17LCuuYvftQ+LRo/jjjz/QvftFqF07HKFhoQivHY6NGzfip59+Mg3eiy/ubYKizZu3mDCL93Y+mLrssstM24AVVbNn/2YatTfddJMZ5oDb2Lxpk0nfGIyx+uvOO+80bYT169Yjem+0Ca169eqJyy67HHMYxCWnoG/fyxEffxDffPMNnn/+edOu+eCDD9C3b1/TVZKVVL/8+qt58tuxfXvMmz/fBHg33XSjefDF4G3ixImmkX7NNdeYIRgYxLEKjO0qto1uvPFGE5RpkoAEJCABCVSGAIcaeHsx8Om6orfeNAS4vCFQ298+SPvyfcC8KCAx8+T5WYU143r7W4yLmpb9s8zcY/nwxmbjqw0txwfTOlbssmnzJrhZ3TB8xHD4+vriyiuvxNBhw+Dn62seRDHgYluBn/n5WZ1tg/bt2qHJsWEDKsPwbN+mywMsPh39ejXQpxHQqmbJXNsPAVM22sfJ6l7/xET0n73Awijg8YuKXg+fPDJgYiUTq574tHHWrFnmiWRwcJC5iHbs3IVHH3nEdOtjY5CNx08/+xTNmzU3jUeGP2xszpw505QLMk3lelJSkjFjxkz8PmcO+vXtaxp2vCBr165tluG869evxxNPPGHK9fmE9PPPPkOv3r1N448Nxh07dmLChG/NE1w2PrnM4Ouuw7x58/HlV1+izyV9cNPNN5mnrwyn2OXREWBx/9l1gdvixf/5559j1epVaNzoeEOSx8cKrJphNTH68dEKsEq+3DSHBCQgAQmcAQIc73JvIvD5auCJ7oBfMU9DHbualwfM2g5sOQRc0dT+pkK3AkNFPjwLGNHB/sKYwhPvoaxc2rhxE9avX2fCHT5gYnDFsSl8fH1MN34+IWUoxUCKD7d4X+dyDKKOJCQgKzPTPABjhRQbrRwCgA+hOEbG+K/Hm6olVnCtW7vWPIkNqVbN3L/ZbZEP2Lj+TZs2mXYKH3Kxe0HPnj2Rnp6BuXP/MEESt7Xwr4W44cYbTNuC1dlsPyxd+jfat+9gwjS2V9zd3HF538tN9RW7DTLA2rhpE155+WU8/vjj+Oqrr0w7Z978eejUqRNCa4SasTiOHj1qgi0+1ONDOj4EvO666zBgwACzn5999qkJ1SLCI9Dn0j6m+kpjd5wBPzDaBQlIQALnqADfPHj7DOCfAycDeFqBAU2AtmHA6gNAs+pAZADwyb/ApkNFg427HBhUTDFUdPReREdHmXs4M4bCU/Xq1fOzAIZczBYYYH344YemQov3S7YtXn/9dTz33HPmczr/zQdkupeW/wJ2eYDFi+yDpcB9XYDQY28FYkOVT0hZlcWB0xyNzrgUYPIGe1eAyxqf3N2Q3QrfXgK826/4A969exd++mm6uYA4GDvHhkhOTs4fBJ0XIBtvbIStWbsWU374wTQ8GXjZn366YV/sPtNdICs7ywRGrMximT37r7K0vkf37jiamGguZjYuuQyfqDI4Y6OR1VmJRxPx8CMP45ZbRiA0NMxUWcXExOLPP+dh0CB7o5UN0auuuhLbt+8wDcfu3Xvg+uuvx/z580yIlZ/0AqhRIxQjRgw3jWg2gFmBFRUdhfbt2uePe2HvZ7sd7u5uZarAYpVc2rESTFv+kCE2WGwWHP/3qS8yiw0F5j2+7PGvF1zfiW83OnHZorZz4rL2/bKvw/yHAuV4QeXJy5a03yfuW3H7Xdwxn/5+F3fMRe138eerrOeq8H6X3tqxXyXvd2l+hZV1vwuOlneuXmOlP1cmKz/Fz5WuMbvl2ft7rLjRI0/391hprjG+8YcDqxcMmAr/zLNdsCvBXoH1fO/j87KdwEorLhvoffwoVsQAC/YAPeoDHWoDnoXGQ313CdCiJtC3iGIhBlasVNqzZ7d5EMWJXfbYXmjRorl5cYrFakX9evVRr349+Pn6mfDqk08+wZtvvImc3FxTtcWJY0ZFRUWZB1/9+vUzbQJWU3Fe3pO7dLkA8XEH4OvnZ9bLaevWbWjWrKkJrNgOmDtvHpb98w/uu+8+Myg8H7qtWLHcDKJeo0Z102i+7rrBpu3CoQi+/nq8aXOw+yHbIwsXLTLbZTdBhk7ffvutaSizaurHqT/izrvuxBdffGka1TxGPhBjVbfV6maCOzbA+QCM+80g7cKLLkTbNm0xZ84cLFiwAJdeeql5gMa2TVka3GxbpGY7frec/Fu+tPfK0lxjjrVX/u8x+56UfM8pOE/J98qyvCerbPfK0rVrjs9Vue2xyvw9VtZrzBXtmoLtcl1jpRE+Pk/p2vylbTsf//l1/u+xkn8fuPLzWWVeY3wGFeB1fDiA4s4GhxW6cqINe1PsH/4Kfqp0swB1A2HGt+KLXQY0BeoHAZ+sBrYcOXmNvL88cwFwT5eit8YHSixiYY8t3i8LT6ymYuGIj58PgoOC8yuseT823QitFjOk0BtvvGHyhC1btpjAi+0FTeUXcH2AlQa8txR4qCtQzde+oyws4kCtq/bZn462rgmwoTN1E5CRY3+aWpuvzS50XAeSgVcWAh9cUfQB80noj9N+xL+r15ixqBo1amjK49lAZKOO3QE5IDsvtK4XdsOqlSuRkHAUrVq3xriPPzZPHTku1cwZMxEXdwD9r7gCmzdtNuvKys424VXCkQQEhwSbRi8vTD5h5foZdO2N2YsXnn/BNCQZbt1+++249957YIEVGzaux/btO7Fw4QJ0u/BC1KtbzyzTsWNH89T2x2nTEBgYYMr2t23dZsbgKPh2IX8/f3Tv0T2/Amv8V1+ZMbnYVdIxcX7+cNWtUwePPvZYqSuw+EFgaTRwrDAy/zWj1mOhlOPVowV/QRQ1IF7BV5Ry2TwLwF9GnLc0yxb+JZR/XMf+UnD9Ba+AgoP0FZVjObZd3CB+p7vfjvU6tl3QyzRkC7y6tbT7XXCdrt7vos5VRe43bx66xuxXRkk/V7rGjhsV93NV8No9ljmZC0zXWOVdY3UCgV4NgerH2gBF3cELBlgvXnx87Cq2CZZEA4fTgcsa2R9s7U4Apm0CmtcAejawh2OFJz44a1wD6F/EkAN8qMXhBfbs3m1/+GGDqaxi10KW/PPNfbwvM9jp3Lmzud//NP0nc29md3+GWbExMWYnc3KysXdvjJmHbQje05evWI65f8w1y7NrHrveefvY+zJ6eXrgyJEEdO3a1TRmfXx8TFe/RYsW4sEHH8Ls2bNxNCHB/NfH19cMZZCdk402re0vieGYVDNn/mweVHXr2hWDrr7aPIjj0AQXdO2KrVu3YOLESXjmmWcwefJkU83drl07E1xxXZMn/4CgIPubkXOyc1C9RjX06tXbtC3YluHDNA67wPG22G6i1UMPPXTCYLWlbXKyjbdoj33ugj+vlf17zJn3HFfdK4tr1+j3WCl/jx1r+FVWe8yZ19ipBqI+Vfu3pHZkZV9jhdvOZ12bX9dYfpu1rJ9zCv8ec1wLHAagX1Ogbgkv9+PLWvp/b8O+tOKrF9qGAgOb2IcXWBIFfL7WPhZW4YnbfvIC4P4LivieLc88VJo/708kJSeZ8a/40IqFL+xFxXDKx9vH5AG8P7PHFR9c8bP8Cy+8YNoV4z4eZ3pZfTJunHkwxuVvu+22Ez6/l/aeqvmOC7g8wDqaAXy6AhjcCmhYYEyLo+nAjK0AK7SuaQGs3g9sP2wPr9goLepJ7fo44MdNwHO9iz6FLMvjmA5slPJJJcMlPhmNiIzA/Hnz0LRpM/MEkV0CGfzwQuTbAljV9Of8PzFl6hTTtZDrGTlyJJo0aWKehObl5mL1v/9i+fJl8PX1Qx2+ncjXF5mZGaYLIhujrVq2gpe3F1q3ao1GjRuZp5S33z4Sd9xxp+nrGhgQgN9mzzZjY7FRe9ddd5mnsfwhYAP2+++/M10GOQD8Dz/8cFKZIn843nzzTbMML/4NG9Zj37795pfHwbg487YhdklgWSLDM3Yr4HpLMyWk288DP0AUbmSWFP4Ut37HegrfeE/1odOxrvIsezr7XdyyxQUKrjhmRyO48A38VOfvdI654HrL413wXBVcV3FhW1HbK9jwL811UdjidPe7qFC1NKFIefZb11jRIXZpznvh5smZcI2V5vfq6VyfZ+s1Vty5YqOUFdiFq6RO+N1hA/YcBb5cbR983cvd/l0+8GLb4NdtQMMQoGNtYMYW+wCtfKtxDb+iazKenmf/ftfjz3jyN8fqJYYzfKkK3zB0bLhJs6Ls7Bwz2Cobo02aNkG/vv1w+MhhJCclY9y4cXj33XcRE7MXv/zyq+nux25+/65ebaqXRt1/v6m2ZsUUn9aGhYWiYaNGiDsQZ8IhDsDOrnp8qQy78LG7AdsprHJauGghRgwfYUI0DlHw6quvmjYIt8H7OdsprBhbtWo1tm3biuDgEBOOsU3DdgXDMFad862BM2ZMx9ixT5r2yTvvvI2cnFyMum8UrG5W073wrrvuNGXLO3ftNJVj7C7Ityex7cDqbg5gzwd7fJDGcTvZ2OYTYz4kY5vIz+9YOX0JPwhs/x0q4gPD6fxsnIm/D87E32NV7Z5Tke2xqnaNqV1z4i8qtZ2d3x5z1jXGz/41/YsfUN1xJg+nATf+CKw7XCDQOPZXRxuRD7siA4GLIoALwoEPVtm7FBY1vdUbuKFdUd+xmYc4/LzNym22GfgwiONh8r7Lz/DMG/hfjn/NQhl24+c41Oy1xXvomDFjMH78eDMu5pQpU8y9mr2tCr+tsDTtSs1T4HzbCpb5uECGbxX6aTMQ5gtcVuBJKMOS/SnAzK1A1FHA2w24uCHQJbL4Ru7/1gJWKzC0mMHgGexw8FN25eOYUxzbgaV6fF0l357DEIhjSPS9vC+at2h+wsXDJ6QvvfQSoqKjzVNNlvIzaOLEhicbpfY3A22Ht7eXeTp5IC4OmzdtxKFDR9CqVQvzxLZ2rXAMGToE0VHReOo/T6F2rVr2J6PduuLr8V/jkosvAd9oEFazphl3gk89OX333XfIs9lMdwA+4eXg7I63E/C42B3go48+MttgY5c/OHzjARumdevWMaX+THztXQ9WmO9xkNiylPu74PRrlRKQgAQkIIFSCexPBj5bBdzTyf4CF8fEboRrDwBzdgJ88srBVvs1BiKD7AO0Fp749uPBU4BPrrA3houaGNzw7b/RUVGmLcBhAjjxfss3FPIe2qp1K1x66WXw9vJCVmYWHnr4Ibz11lvmvs17NtsYd95xJ5YtX2a663EMTI5/xfYC/822g5e3N7Zs3myqsDhcQLWQENP+4AOmIUOGwsfbCz9Nn24qqxhoDbthGBYtWmS2xxBt1apVuPvuuxAWVtPc3zkIPAdWZ6U33x7449SpJoBjg5jtg4ULF5o20KOPPmraPBO+m2DaHmOfGIsaoTVMVRbH4uDEKjSOp8WnxgzCOHF8Ta6H7Qc+eea2+BZCBlhs94wePRoff/SxefKsSQISkIAEJFDRAhyGiA+ppmw7ecuBnsDVzeyV1TO3Ax1rAvecB7y/Eli09+T52eVw+nXAeRHFHwWrqvhwaerUqea+fu2112DatJ9MaMWxrDjx4RFfzLJ23Tr87/vvMebxx7Fi5Urz4OrFF18041Dy8/vTTz+NoOBgxO0/gAsv7Fa61y1XNPBZsD2XV2DxVZcrYoHZO4Bnep5YWWW6Eh6yD8TKAVgvaVh86sr13DYdeL4X0OAUbydiufzceXMRYsr2Y0yYwyCITzQHDRxkGo684Pg0kxO73PGNg7/NmoXa4eGmuwDDocSkJPS55BKc17GjaTjyySwDrCV/LzFjQ3DsiZ9/+RnxcXEIDq5mnoz2798PnTqdbyqpvhr/lb0BzAFPrW4mdW3QsD4GD77ejH81ffpP6NCho3lLIffFBFh5eabEn0ktAzj+4ZSTnY3XXn8Nn376mQngHn74YfP67NS0VPNmxWuuvhrbd2w3lWCbNm4yXRw5jtfAQfaBWTVJQAISkIAEznQBNkqnbQTCA+3jYBacsnKB+buADXHApY3sQw8UN6bWmv3A56uAD68oOuAy99WcHBM0scscuwZcdeVVCAsLM90CGOKwYcl7NNsLDIJYsc03GL/15lvm9dkMwNgw5fhQK1esNG8lfmLsE+Y+znX8+uuvpjqLg7gzJGIQ1KxZM+zYvgONmzQ2AREDqkmTJiI9LQOtWrdEZGQdrFixEn8vXWICJ04cuoBBGd9eVLdeXSQlJpk3BbKSnGNj/jB5MgYMHGCeCFssVowb97HZZ74tMCU5GaPHPI52bduZh3l8UQy7Qt5xxx1m3bt37cahQwdx3eDBJwVYDLUYYE2bNg0jbhmByIhIMz7Ws88+g++//5+p1tIkAQlIQAISqGgBtgd+3grcP+fkLbtbgEvrAze0the9BHjas4Zxq4HdiSfP3zwEmDbk5HG3C87JroB8OMS8gIEVC2P4uZ0Pongv5xt8eS/meJPjx39tHgLxoRg/73fs0ME8wFq3fr3p/cWHZLyX80UxI0aMqGi6KrM9lwdYlNqXBHy+EujXBOhcqJyfwRQHWfNwA3yOdRkoSnf2duCPHcAbfQGmpUVNLJdn9VJycgpq1appGo8cj2LT5s34Y84c5ObmwMvL24z/8Myzz5qxrvj1Zs2bm8FNGTaxDJCNRT6Z5DgXDLhYKcU/DLD4ZJMNVAZlDJMcpfecn8ksq7YefOBB5Oblmq6DfGL6yiuvoG2bNrj6mmtMw5IpLp+qcowLBmbctj3AsqFHj+7mzQW5ObkIrRkGC2wmpJo7dx4mTZ5knvyyK+GTY8fizwUL8MXnn6NuvXpmjK601FTTjZBPSxlgMchiFwRNEpCABCQggTNdgO2Bf/fbuwg+1QNg18OCE8fDYsOVbQW2GYqauI6n5gIDmwPd7EVFxU582MSXobDiqkH9+qbCaM2/a7Bt+3bcc/ddpv1gdbNvyARYDz6It95807xZiI3QZcvOqIipAAAgAElEQVSWY/IPk829t1vXbhh5+0gzLwMsBla8/7P7Adsm/fr3N/f7xKNHTSi1ft16PPjQQ6hTJ9Lc1/mHbQI+ob333nvNAzDHuJYzZs4067p95EjztUkTJ5n2RUxsDBo3boSLL77EdFdgu4LdHJ5++j9myIR33n4Hbu5uZigDNqA5Ttfbb7+Fiy++2OznwYPxZvyOEbfcUmSAxW6QfHLM5bh/fBDY/aLuGPPEmDP9UtL+SUACEpBAFRVg1XH0UeC+X4HVB08+SLYRavkC4X5AVh6wJ9k+VE5uEWNQjO0CjLqg6EIoVltxSIBvvvnGPLThm4N5H2dwxfxg0uTJyMzIQGpamulKeP2QIXjnrbfx7HPPmgCL99CxY8ea+/lNN95kxrNkN31WUrMrf+fOxYwcX0XPmzMPq0ICrOxjVVi/7wTu7wzUOMVArkUd3P5kG56ab8ELvexdBoqb2Pjcv/+A6eLnGKOB40uwwcdGneMPS98ZNO2N3mu6DjCIYtjl6G7H+XnRshHK8TE8PDzNPLwQ2T2AZYl8zTbDKDYi+XSW8yclJeLw4SPmqapjXQy7+PZBR6Dm2Hc+/WWVF7M4jmvFJ52cmNpy3C7uHxvJnLgOliayuwCrtRiAcbv8L1NfNqQ58Vi4HI+Zy/CHjfumSQISkIAEJHA2CLCRyQHa+ebCm9qd+s2FRR3PHzuBxVHAf3rZ11HSxAdHHIidEx9Mxe6LRfVq1dG4cWPzQMsx8Z7Kp6msomKYw3YCw6moqD1mbEyOIcX7Mie2B3hv5jy8L3N+3s/5d36N926+dIbLcBuOaiaOYcnvhYaG5n+N8zsGmGdbgevmNvkwju0BLs/2DsOl1JRUBAQGmBfC8A2DDK1CgkPgH2B/2QwfznHsL76shhO3xz/h4eH5bSaGd2ych9eubdoPbPdw3Vze3cMdYaFhpR5fsyR7fV8CEpCABCRQHgE+0OIwRE//BSRnnbwGfr62WO3jO/NPUVPb6sCEa4HQU+QS/Nx/8OAh8zmen68dn+/5OZ7jYTF74L2S922+bXj/vn3mnsqvsd0QFRVtlmX7wDGOJPMFvixFw/yU58zbl6mQAMs0lDKAX7YCsSnAXecBQfZ2XokTB2p7/i/gisb2MbTOhaJ1XuCFy/OL+lqJeJpBAhKQgAQkcBYJsJ3Jtwx+vxZoXwvo36z4quvCh7V4D/D1WuCZXiW/xagokoJDghbVRe7MuTcXfAVF2U5uSW2Jkr5ftq1pbglIQAISkIBrBA6mAh+usOGrdRbk5Z24DT6/4p2yuBf/sEJrXH+gS4SGoXLN2XHtWisswOJhMIziWwSjEoGRHYC6wfaGaeGhFJiUssxvy0Hg7aXAoGb2txO6F9NlwLVEWrsEJCABCUhAAhUl4Bgfc9J6oHE1YGALwN/T3lYo+BDLNE5tQGYO8OtWYNYOe9dDvvH4XHjYVVHnQ9uRgAQkIAEJnIkCB5KBj1cCEzYC2TnFB1bcd4ZabEdE+ANv9gG61Sl7lfeZaHAu7lOFBlgE5lsJF+wB/txjQ4vqFnSKOPbKTHf7RZeSBexLBhZFATFJwA1tgPa1AfdSdAU4F0+gjlkCEpCABCRQ1QQYTLEt8ONmICYR6FEXaBlmr97m+FfZeTYkZ1jM4Kzzd9uHJhje3v72QoVXVe1q0PFIQAISkIAEihY4mmF/iDVhPbAjEeCbi1kIw4dhbA/wpbmeVsDPC7go3D6cUdPQ0ld3y/3ME6jwAIsEvKD4KuzlMcC6OOBwun1gVl5kXu5AmC/QORLoGA4EeqkxeuZdNtojCUhAAhKQgOsF2DbYdQT4ey+w44j9IRfbEGyQ+noADUOAC+sCTaoDnqrSdv0J0RYkIAEJSEACZ5hAbp79odfSvcCyGGBrAnA4A/ByA+r4AW3DgO71gba17G0HTWe3QKUEWAXJ2BDlW4McKSkHXOPAq3qCenZfWNp7CUhAAhKQgLMEWKHNBiqfqrI6i0XZblb7a7LVXnCWstYjAQlIQAISOLsFOB5WToEKLLYV+EdthbP7vBbc+0oPsKoOpY5EAhKQgAQkIAEJSEACEpCABCQgAQlIwBUCCrBcoap1SkACEpCABCQgAQlIQAISkIAEJCABCThNQAGW0yi1IglIQAISkIAEJCABCUhAAhKQgAQkIAFXCCjAcoWq1ikBCUhAAhKQgAQkIAEJSEACEpCABCTgNAEFWE6j1IokIAEJSEACEpCABCQgAQlIQAISkIAEXCGgAMsVqlqnBCQgAQlIQAISkIAEJCABCUhAAhKQgNMEFGA5jVIrkoAEJCABCUhAAhKQgAQkIAEJSEACEnCFgAIsV6hqnRKQgAQkIAEJSEACEpCABCQgAQlIQAJOE1CA5TRKrUgCEpCABCQgAQlIQAISkIAEJCABCUjAFQIKsFyhqnVKQAISkIAEJCABCUhAAhKQgAQkIAEJOE1AAZbTKLUiCUhAAhKQgAQkIAEJSEACEpCABCQgAVcIKMByharWKQEJSEACEpCABCQgAQlIQAISkIAEJOA0AQVYTqPUiiQgAQlIQAISkIAEJCABCUhAAhKQgARcIaAAyxWqWqcEJCABCUhAAhKQgAQkIAEJSEACEpCA0wQUYDmNUiuSgAQkIAEJSEACEpCABCQgAQlIQAIScIWAAixXqGqdEpCABCQgAQlIQAISkIAEJCABCUhAAk4TUIDlNEqtSAISkIAEJCABCUhAAhKQgAQkIAEJSMAVAgqwXKGqdUpAAhKQgAQkIAEJSEACEpCABCQgAQk4TUABltMotSIJSEACEpCABCQgAQlIQAISkIAEJCABVwgowHKFqtYpAQlIQAISkIAEJCABCUhAAhKQgAQk4DQBBVhOo9SKJCABCUhAAhKQgAQkIAEJSEACEpCABFwhoADLFapapwQkIAEJSEACEpCABCQgAQlIQAISkIDTBBRgOY1SK5KABCQgAQlIQAISkIAEJCABCUhAAhJwhYACLFeoap0SkIAEJCABCUhAAhKQgAQkIAEJSEACThNQgOU0Sq1IAhKQgAQkIAEJSEACEpCABCQgAQlIwBUCCrBcoap1SkACEpCABCQgAQlIQAISkIAEJCABCThNQAGW0yi1IglIQAISkIAEJCABCUhAAhKQgAQkIAFXCCjAcoWq1ikBCUhAAhKQgAQkIAEJSEACEpCABCTgNAEFWE6j1IokIAEJSEACEpCABCQgAQlIQAISkIAEXCGgAMsVqlqnBCQgAQlIQAISkIAEJCABCUhAAhKQgNMEFGA5jVIrkoAEJCABCUhAAhKQgAQkIAEJSEACEnCFgAIsV6hqnRKQgAQkIAEJSEACEpCABCQgAQlIQAJOE1CA5TRKrUgCEpCABCQgAQlIQAISkIAEJCABCUjAFQIKsFyhqnVKQAISkIAEJCABCUhAAhKQgAQkIAEJOE1AAZbTKLUiCUhAAhKQgAQkIAEJSEACEpCABCQgAVcIKMByharWKQEJSEACEpCABCQgAQlIQAISkIAEJOA0AQVYTqPUiiQgAQlIQAISkIAEJCABCUhAAhKQgARcIaAAyxWqWqcEJCABCUhAAhKQgAQkIAEJSEACEpCA0wQUYDmNUiuSgAQkIAEJSEACEpCABCQgAQlIQAIScIWAAixXqGqdEpCABCQgAQlIQAISkIAEJCABCUhAAk4TUIDlNEqtSAISkIAEJCABCUhAAhKQgAQkIAEJSMAVAgqwXKGqdUpAAhKQgAQkIAEJSEACEpCABCQgAQk4TUABltMotSIJSEACEpCABCQgAQlIQAISkIAEJCABVwgowHKFqtYpAQlIQAISkIAEJCABCUhAAhKQgAQk4DQBBVhOo9SKJCABCUhAAhKQgAQkIAEJSEACEpCABFwhoADLFapapwQkIAEJSEACEpCABCQgAQlIQAISkIDTBBRgOY1SK5KABCQgAQlIQAISkIAEJCABCUhAAhJwhYACLFeoap0SkIAEJCABCUhAAhKQgAQkIAEJSEACThNQgOU0Sq1IAhKQgAQkIAEJSEACEpCABCQgAQlIwBUCCrBcoap1SkACEpCABCQgAQlIQAISkIAEJCABCThNQAGW0yi1IglIQAISkIAEJCABCUhAAhKQgAQkIAFXCCjAcoWq1ikBCUhAAhKQgAQkIAEJSEACEpCABCTgNAEFWE6j1IokIAEJSEACEpCABCQgAQlIQAISkIAEXCGgAMsVqlqnBCQgAQlIQAISkIAEJCABCUhAAhKQgNMEFGA5jVIrkoAEJCABCUig8gRsyLPlITH7MPal70F8RgwOZsQiLTcJebZcpOYlwWIDvN384esWgGCPUFTzqokaXrVR07sO/D2CYIG18nZfW5aABCQgAQlIQAISOKWAAixdIBKQgAQkIAEJnLUCqTlJ2Je+G9uT1mBX2kbsz9iBtJwkpOemIiM3FTl52bDBhhxbljlGN4sH3C0e8HTzhpfVB95uvgjxqIlI3xZo7N8GDQNaI9SzNjysXmetiXZcAhKQgAQkIAEJVEUBBVhV8azqmCQgAQlIQAJVWMBmy8P+jD1Ym7AEGxOXIjZjO5KyDyMtNxlZeeklHrnl2By2Y/+1WtzhbfWFn3sgqnmGo4Ffa1xQvR+aB3ZUkFWipmaQgAQkIAEJSEACFSOgAKtinLUVCUhAAhKQgAScIHAwcx/+Pvgr/jn8C+Iyo5CWk2yqq1hlxWDKEUqVdVOOUMsCN3havRHgUR3NA7rg0ppDTZDlZvUo6yo1vwQkIAEJSEACEpCAEwUUYDkRU6uSgAQkIAEJSMA1Amk5KVh7dDH+OPAddqSsQXpuMvKQm78xZ4RXhcMvD4uXqcrqXO0KXBFxKyJ8GsJiYjJNEpCABCQgAQlIQAIVLaAAq6LFtT0JSEACEpCABMokEJu2E7/u+xrLjvyG5JxDyLXlFFreFfHV8U0wyArzboBrI0ehZ9igMu27ZpaABCQgAQlIQAIScI6AAiznOGotEpCABCQgAQk4WYBB1cbEZZi69wNsTV6OHBNclbeT4OntHCuvPK2e6BjcF3c3eQX+7kGnt0ItLQEJSEACEpCABCRQJgEFWGXi0swSkIAEJCABCVSEQFpuCpYdmoPpseMQk76lyE26tu6q6KN0s7ijQ/DluK3Bk6jpU68iKLQNCUhAAhKQgAQkIAEACrB0GUhAAhKQgAQkcEYJJGcfxYL4qZgeMw5Hc+LPqH3jzlhgRaRPC9zR8Hm0COoMq8V6xu2jdkgCEpCABCQgAQlUNQEFWFXtjOp4JCABCUhAAmexACuvFsXPwHdRryEtN+GMPRKGWHV9W+LORi+hWWBHE2ppkoAEJCABCUhAAhJwnYACLNfZas0SkIAEJCABCZRBICsvAysP/4kvdj2NxJwDZViycmZ1s3igZUA33N74BUT4NFCIVTmnQVuVgAQkIAEJSOAcEVCAdY6caB2mBCQgAQlI4EwWyLFlY3PiCny16zlEp29y2q7aLDZYbBwtq+xTaZb1tPrg/JB+uLn+GIR6R5R9I1pCAhKQgAQkIAEJSKBUAgqwSsWkmSQgAQlIQAIScJWADTYcSN+D8btfwqqE38u8mcoYzN2xk9x2gHsNXF5rOK6KuB1+7oFl3n8tIAEJSEACEpCABCRQsoACrJKNNIcEJCABCUhAAi4USM1Jws+xX2LGvv8iKy+1yC05aqhs5dyP0w25TrVdCyyI8GmCwXUeQbca/WC1uJVzL7WYBCQgAQlIQAISkEBxAgqwdG1IQAISkIAEJFBpAnm2XKxJWIRPdozBkezYEvfjdIIorrysyxec/1TLulk8cX61y3FTvTGo7VO/xOPQDBKQgAQkIAEJSEACZRNQgFU2L80tAQlIQAISkIATBRKy4vHJjrGn7Dp4JldfFaQI9qiJK2qPRL/aw+Hj7u9EJa1KAhKQgAQkIAEJSEABlq4BCUhAAhKQgAQqTWDJwVn4aMfDxXYdrLQdK8eG2ZWwReAFuKHu42ge1An8tyYJSEACEpCABCQgAecIKMByjqPWIgEJSEACEpBAGQWy8jLw9pZRWJkwu4xLlr0rYJk3cIoFGEvlHeuOWHg2f/dquKL27bgy/Fb4ugc4c7NalwQkIAEJSEACEjinBRRgndOnXwcvAQlIQAISqDyBNUf+whtb70JmXkr+TpR2jKqi5ivtstxY4Xn5by+rPzytPscqpyxIz0tGVl46gBOHcD/Vti2womPIJRhWdzQa+LesPFxtWQISkIAEJCABCVQxAQVYVeyE6nAkIAEJSEACZ4vAW5vuxdKEmSeEV/xHed40eDrjZLlbvNAisDPaBF6IAI9q+QHW0sO/YWPSIuTYsk5JWnjboV51MKzu4+gRNkjdCM+Wi1H7KQEJSEACEpDAGS+gAOuMP0XaQQlIQAISkEDVEziYGYvRa65Acs6hYwfHEaNs5QqvWE91Oss2D+iCqyPvRaugzvC0epl9OJx5AF/sfBbrEv9Eji37FCfg5G27WTzQv/ZtuDZyFAI8QqreydMRSUACEpCABCQggUoQUIBVCejapAQkIAEJSOBcF/grbjo+2HF/gXqrsnQALKxX/mVDvepiYMTd6BE6CH7ugWbF2XmZmBnzBX498CUSsw+WUBNW9LbbBfc2g7k3Dmhzrp9qHb8EJCABCUhAAhJwioACLKcwaiUSkIAEJCABCZRFYNz2sZgXP+GksajKso7yx1b2MbC8rH64tNbNGBBxB0I8w/K7+/0Z9yOmxXyEAxm7kIfcIneppG3X8KyLEfWfRrfQfmU5JM0rAQlIQAISkIAEJFCMgAIsXRoSkIAEJCABCVSoQHJOAp5ffyN2p62r0O0W3JjV4oaOwZdgSN1HzWDr7AjIaXfKJny75yVsSlpaQtfBU+86B4O/vs6j6F97BLzcfCrtOLVhCUhAAhKQgAQkUFUEFGBVlTOp45CABCQgAQmcJQL706Pw1PpBx7rnVfxOM6yq79ca10Y+gPOrXQJ3q6fZiZSco5gY/R4WxU9Bam7iae2YBW5mHKyrI+8x1V2aJCABCUhAAhKQgAROT0AB1un5aWkJSEACEpCABMoosClxGV7cdBOy8tLLuKRzZvdzC0G/2rfi6si74e3ma1bKgdtn7P0Mv+z/HEezD5R7OPmCe3hh9YEYUvcRRPg2cs6Oay0SkIAEJCABCUjgHBZQgHUOn3wdugQkIAEJSKAyBBbE/YRPdj6KHFtWqTbPcMnewc8+sYLKxy0InlZv8+9sWxbSco7ChryT1mez2GCxHV+aXfsYLA2r9xiqe9Uy8/Pdh+sTluJ/0a9hR8qa/PUUXrZUO3tsJu5zy8CuuLnek2gW2KEsi2peCUhAAhKQgAQkIIEiBBRg6bKQgAQkIAEJSKBCBWbGfInvo186YYwpK1BE/FT0btXwiMSQeo+gcUA7E2Zl52VhX/oufB/1BuIzo4p9a6DV4o6mAZ1wU70xaB7YKX/cq/0ZUfhf1OtYfnh2qUO142GavXqrqKmxX0cMb/AftArqXKG+2pgEJCABCUhAAhKoigIKsKriWdUxSUACEpCABM5ggR+iPsTU2HeQa8su9V46aqgYFnlZfDG07mhcUmsIfN0DzDpsNhsWHpyJT3awsivzpPVy+RCPWhgUMQr9IobDCkZmQFZeJqbtHYdf93+BtGLGvSpLuFZww438OmBE/f+gVXCXUh+nZpSABCQgAQlIQAISKFpAAZauDAlIQAISkIAEKlRgwq438POBcci15ZR5u44gq7ZXU4xs+AJah1wAd4u7WQ8rsSbsfh2z4v4LW4Fug/yej1sAeoYOwfD6Y/LfCpiTl4Plh+dgSsy7iE7bXOK+lDXIqu3VBLc1fA4dq/Uscd2aQQISkIAEJCABCUjg1AIKsHSFSEACEpCABCRQoQITo97DT7Hvl7oCq2D1VcEdbRPUE3c0fAHhvg3zuwMmZSfgufU3ISp9bf6sHhZPtAq6CHc0fBG1fOqZr3Pcq+1JazAx+g2sS1xU7PGXNbQquKII76a4teGz6BCiAKtCLzBtTAISkIAEJCCBKimgAKtKnlYdlAQkIAEJSODMFZgR8wX+F/3yCWNglWdvOf7VgPB7MTDyTgR5VM9fxZbElXh1yy1IyTkKC6yo7d0AN9Qdi66hfY/NY8PBjH34KeYTzI+fhGxbRnk2X+Iyjf06HBsDS10IS8TSDBKQgAQkIAEJSKAEAQVYukQkIAEJSEACEqhQgV9ix2NC1AsmwDqtN/1ZbPCzhmBkwxfRrUa//LcSsrpqzv7/YULUi/CweGNQxP24ImI43C0e5jjTc1OwMH46psV8hENZMeU69tLsd7OALhhe/0k0DzyvXNvQQhKQgAQkIAEJSEACxwUUYOlqkIAEJCABCUigQgX+OTQb722/D7l5maV+82DhHWS3Qsfb/+r5tsGoJm+hvl8LWC32wdlTchIxfueLyLHl4NaG/0GwZw3zdYZmG4/+g8l738bW5JXlOu6C2z7VCjqFXIZh9Uab/dIkAQlIQAISkIAEJHB6AgqwTs9PS0tAAhKQgAQkUEaBnckb8MzGwcjITT5hyeLGuirN6nuGXo8b6o1GDa9aACxmjKsjmQeQmZeBcJ8GZhV5tjzEpG3H1L0f4O/DM808jqm0oVRR+1L0flvQO+x6DK7zIGp61y3NIWgeCUhAAhKQgAQkIIFTCCjA0uUhAQlIQAISkECFCiRkxeOpdYMRl7nzpADreKRUtl3ieFhD647GVRF3wMvqU+TCidlHMOfA//BL7GdIyT1yQnjFf5R/2ycva7W4Y2D4PRgYcRcCPILLdjCaWwISkIAEJCABCUjgJAEFWLooJCABCUhAAhKoUIEcWxZe3XgX1iT+UWC7p1sDZUM1j9q4s/Hr6BTSC5ZjXQkdG8jKy8CqI39iYvSbiE3fVmi7zo6vAF+3INxYbwz61BoKd4tnhfpqYxKQgAQkIAEJSKAqCijAqopnVcckAQlIQAISOMMFJke9jx9i3sTpxFZFHWJDv/Z4qOn7iPBtlP/tXFsOdqWsx3d7XsOGpCVOkSlpvxv4tcPN9caiXchFTtmeViIBCUhAAhKQgATOdQEFWOf6FaDjl4AEJCABCVSCwKbEFXh2w3WwIdepXfd4KH3CbsSweo8h2DM0fyysH/d+jDlx38JWYNj4kkKoU7GUtGz3GtdgaN1HUcunXiXoapMSkIAEJCABCUig6gkowKp651RHJAEJSEACEjjjBTJz0/H42qsQk77F6fvqZfVF/9oj0TPsWmTnZWDF4Xn47cB4JOcccvq2ilqhj1sAro18AP3Db4WX1btCtqmNSEACEpCABCQggaouoACrqp9hHZ8EJCABCUjgDBX4IfpDTN77ukv2jmNQtQnqhixbFnYmr0dSTrxLtlPUShv5tccN9cagfUj3CtumNiQBCUhAAhKQgASquoACrKp+hnV8EpCABCQggTNUYG/aDjy3YSiOZh9w2R7yzYLs7leeqTzLelp9cUnYMFxT5z5U8wwrz2a1jAQkIAEJSEACEpBAEQIKsHRZSEACEpCABCRQKQI5thyM3/UCZh8YD4sZrap8U0njUZ1qraezLNdbePm6vi0xpM6j6Fy9D6wWt/IdkJaSgAQkIAEJSEACEjhJQAGWLgoJSEACEpCABCpNYFvyGryz5T4cyoo6ZYDlqKIqKuQqTQhVmnmKQyjtsh4Wb3QPvdoM3l7dq1almWrDEpCABCQgAQlIoCoKKMCqimdVxyQBCUhAAhI4SwQy89IxM/ZLTIp+rVR7XNow6XTDqILLO7ZZ0rbr+rbAkLqP4vxql8JN1VelOp+aSQISkIAEJCABCZRWQAFWaaU0nwQkIAEJSEACThdgx8H4jL14d8sD2J66ssj1n6r6qjQ7VFLwdKp1lHbZAPdquKzmcAyMvBN+7oGl2S3NIwEJSEACEpCABCRQBgEFWGXA0qwSkIAEJCABCThfIMeWjdUJC/DZjqeQkL3P+Rtw8Ro9LF7oEHIxbqj3OOr4NnHx1rR6CUhAAhKQgAQkcG4KKMA6N8+7jloCEpCABCRwRgmk5iTh9/3fY3LMO8jJSy/VvtksNlhs5X3HYKk2UexMBbcd7tMEN9R9HJ2rs+ug++mtWEtLQAISkIAEJCABCRQpoABLF4YEJCABCUhAApUuwK6EhzL3Y3L0u/gzfmKJ+1Parn1Freh0uyRaAeQdW3ENzwgMrvMoeoQNhKfVq8T91gwSkIAEJCABCUhAAuUTUIBVPjctJQEJSEACEpCAkwXybHnYm7YN30W9gdUJc8q89oLBUlkXLk+o5ecWjL61bsG1dUbBy827rJvU/BKQgAQkIAEJSEACZRBQgFUGLM0qAQlIQAISkIBrBfJsudiRsh7f7HoJW1L+KfXGKjq88rb6oXfoUAyt9zD8PYJLvZ+aUQISkIAEJCABCZyLAjYetM38P/j/BQeBMP+2WGAp/I1CUAqwzsUrR8csAQlIQAISOIMFbDYbdqdsxKTot7EmcQFybdkl7G1FxlcW+LkF4uKwG3FD/cfgafU8gyW1axKQgAQkIAEJSKDyBNimc0wWk1gVM3apCa44oMSxdMvMaTlpdgVYlXcutWUJSEACEpCABE4hcCgjFj/v+xLz4ycjPTcZtvyRpyqHzQIrqnnWxHWRj6FPrcGwWhicaZKABCQgAQlIQAIScAgws2IUxaiKVVXlm46twQRgFjhWowCrfJpaSgISkIAEJCCBChBIyDqIhfHTMT9+Eg5k7EJOgWqsihvI3QJPqzdqeTfGXY1fQlP/DgqvKuDcaxMSkIAEJCABCZw9Ase7CB4PnJyx9/YiLpsJsRRgOUNU65CABCQgAQlIwGUCWXmZ2Jj4D+Yc+A5bklcgNecocm05LttewRW7WzxN1dX5If0wqM5d5u+aJCABCUhAAhKQgASOC5jOf7bTqbgqWZNBlgKskp00hwQkIAEJSEAClSzAhtGRzANYfngulh7+GTHp2zhXuH8AACAASURBVJDiwiCLwVWQRw009uuI/uEj0CLofLhZ3CtZQZuXgAQkIAEJSEACZ5YAx7kqarwqV+ylAixXqGqdEpCABCQgAQm4RIDjYB3K2Iflh+dhRcJs7M/YjZTso8jMSzvtMbLcLB7wcfNHkEd11PZpgh6hA9EhuCd83QNccixaqQQkIAEJSEACEjibBUx4Ve5xrsp+5Aqwym6mJSQgAQlIQAISOAME4jL2YnPicmxNXm0qshKzDyEp+wgy8lKRnZdh9tBmscFiK3oAUavFDV5WX/NWQX/3YNTwjkR931ZoEXg+Gge0g597gP2JoiYJSEACEpCABCQggRMEKjq84sYVYOkilIAEJCABCUjgrBbIzE3Hkaw4xKbtwu7UTTicFYuE7APIyE1FZm4G8my5ZvB3BlbuFg/zpNDL6oMAj2qo4RmJ2t4NEOnbGLV86prqK3UVPKsvB+28BCQgAQlIQAIuFqiM8EoBlotPqlYvAQlIQAISkEDFCthseeD/0nNTTTVWcvZR5ORlITMvA+4Wd3i7+Zogy98jyIxx5WX1hsViVaVVxZ4mbU0CEpCABCQggbNUgOOSVlaFuiqwztKLRrstAQlIQAISkIAEJCABCUhAAhKQgAQqSsDGbnwVtbEitqMAqxLxtWkJSEACEpCABCQgAQlIQAISkIAEJHA2CCjAOhvOkvZRAhKQgAQkIAEJSEACEpCABCQgAQmcowKVNe5VQW5VYJ2jF58OWwISkIAEJCABCUhAAhKQgAQkIAEJlEZAAVZplDSPBCQgAQlIQAISkIAEJCABCUhAAhKQwFktcLoDwKsC66w+/dp5CUhAAhKQgAQkIAEJSEACEpCABCTgGgGOewUnvHmQFVx5eXmwWCz5f8q6xwqwyiqm+SUgAQlIQAISkIAEJCABCUhAAhKQwDkgYAIsm82ETqczMbziH05cl9VqLfM6FWCdzhnQshKQgAQkIAEJSEACEpCABCQgAQlIoAoLOGP8K3sFlg02W/lDLAVYVfgi06FJQAISkIAEJCABCUhAAhKQgAQkIIHyCrAC6/Rqr45vmSGWoyshv8qiLnsllrVUu6cAq1RMmkkCEpCABCQgAQlIQAISkIAEJCABCZxbAjabPWhy1nQ8xGI0xpUDVovVBFklTQqwShLS9yUgAQlIQAISkIAEJCABCUhAAhKQwDkm4Kzxr4piY3dC+5hYBUIsVmKdIixTgHWOXYA6XAlIQAISkIAEJCABCUhAAhKQgAQkUBoBZ4x/Vdx2Cg7sznlYhXWqSiwFWKU5Y5pHAhKQgAQkIAEJSEACEpCABCQgAQmcQwKurMByMHJQdwZZ7KrIyc3Nrdi3EyrAOocuPh2qBCQgAQlIQAISkIAEJCABCUhAAhIorYANNlicNoz7yVstGGCx96BVAVZpT43mk4AEJCABCUhAAhKQgAQkIAEJSEACEqBARXYhtBzrQljcMFiqwNI1KQEJSEACEpCABCQgAQlIQAISkIAEJHCCgKu6ELKqy5Y/iLt9kyWNf8V5FGDpApWABCQgAQlIQAISkIAEJCABCUhAAhI4ScDZXQhZ0cU/9jcQ8qWDFljcLLDyDYQlTAqwShLS9yUgAQlIQAISkIAEJCABCUhAAhKQwDkowCqs4rr0lZWjyPDKdBss3RYUYJVVXPNLQAISkIAEJCABCUhAAhKQgAQkIIFzQcAGmBCrdBlTsSKOqiv+l5PFYjHdBvnf0k4KsEorpfkkIAEJSEACEpCABCQgAQlIQAISkMA5JuCMgdzZZTC/22A5wisTetkc8dc5dgJ0uBKQgAQkIAEJSEACEpCABCQgAQlIQAKnFnDGOFiOCixWXDn+lNVdAVZZxTS/BCQgAQlIQAISkIAEJCABCUhAAhI4RwScNQ7W6VZyKcA6Ry44HaYEJCABCUhAAhKQgAQkIAEJSEACEiiXgLNSrHJt3L6QAqzTwNOiEpCABCQgAQlIQAISkIAEJCABCUigqgtw7PUyjLfuEg4FWC5h1UolIAEJSEACEpCABCQgAQlIQAISkEDVEDDvDqzkEEsBVtW4lnQUEpCABCQgAQlIQAISkIAEJCABCUjAZQKmCotrN/9X8ZMCrIo31xYlIAEJSMBJAhkZGViwYAFatmyJunXrmrXy9bzR0dHYuXMnOnfuDD8/P+zbtw9RUVFo2rQpQkNDT9r6tm3bkJiYiBYtWsDf3/+E72dlZWHWrN/QunUrNG7c2El7rtVI4OwR4M/P6tWr0btXL/gV+vko6iiSkpKRnp6GatWqwcPDo8gD5c8tv8ef0eLmOZVQelo6VqxYDk8vLzRp0gRbtmxBgwYNUKtWLVit1jLhHjx4EBs3bkR4eLj5HaFJAhKQgAQkIIHiBU53IPbTsVWAdTp6WlYCEpCABCpVgB887x91P24beRsuvfRS8N/Z2dn4+++/MWfO7xg16n6EhYVhxYoVWLRoEa688koTUnl7e5tgy83Nzez/d999B4ZYt99+e34Q5jiwpKQkjBgxArfeegsGDBhYscdrsyHPlme2abFYzSuHHROPk3+8vLzh5la2D+wVexBn79bM655z80wgYrFW0qPGM4BvyZIlePvtt/Hee++d9PNRePcyMzPx559/mj8XXXQRevXqZWbZvXs3kpOTzCNbdkGY8O238PbyxsBBA+Dp5W0e5NK5devWCAgIKPGoDx06hA8//NDM26tXT0yZMtUEYcOH34xGjRrn/2yXuCIA//77L77++mt069YNQ4ZcX3mPlUuzs5pHAhKQgAQkcAYIVNZ4WAqwzoCTr12QgAQkIIHyCezfvx9DhgzBw488gr6XX46HH3rIVGDFHzyI/fv3oVmz5iasOnz4MOLi4hAZGYngoCB0Ov98DBgwwIRbnD7++GOsX78eo0ePRsOGDU8Iio4ePYp+/frhwQcfwNChw8q3o+Vcitv+66+/TFDVs2dPUz3GvzMcWLV6NZKTkzHytttM5UlZq07KuUvn1GIbN23E7N9mmxCmY8eOJ1wX5xLE3Llz8Z///McEvSVVIebk5GLjxg349ttvERsbi2uuucZUSM6fP9+EWI6JFV2c2rZtC3d3d/N3T09PjBo1CnXq1CmRl2H1q6++Cn9/P9x8882IiorGN998gw4d2uPOO+/Kr6T87bffkJKScsL6GASzUuu8886Dj48P/vnnH7z//vvo06cPRo68TQFWifqaQQISkIAEznWByhoPSwHWuX7l6fglIAEJnIUCrIzJyckxXQNvvukmPPDgg+jfvz9+/vln5GRn4981a0xVBT88h4QEY9OmTVizZi26d++O+vXrmw/Ibdq0ya/0KBxgsWJr1qxZJizKzMrEvLnz0Lx5cxNucQoODsZll12Gdu3auVSPAcBnn32G9PR03H333Wb7rC7773//i6TEJDRo2AD333+/OSYFWOU/Fbm5uaaLHLuZduvaDeER4WZlrOJ74403jT2vpapuHBMTg99/n43o6L0nYO7Zswdr165F7969EBgYZCqoLDYbbBYLwkJDTeUig2LHlJmZhZ07d2DixImmK+8tt9xirlFWMzJg5vTOO++YZW677Tb4cFmLPcBq2qwZfLx9zDy8/n+Y/AOOJiacFCqlpqaafeIyrKpkNSX/7evji+YtmuOGG25Aq1at8MADDyAqag9yc/PA6jDOz26HHTt0wL333ouQkBATYLGa65JLLsFtt96a/4olBl2OP+W/urSkBCQgAQlIoOoKVHR3QgVYVfda0pFJQAISqLICHOOKwU5sTCzWrF2D+g3qo1ZYTdw8YgQaNWyI5cuWYdHixbj11ltRLSQEa9auxfLly03o1LRpM/j4eJsPso5AonCA9fffSzFzxnRkMcDKzMKSJYtRr149ExilJKeYii5+aGeXRFdODBQ+/ugjpKWnm6CK1S9fffUVJk2aZKpOevTogdq1a5tj0VR+AQYbn3/+ORYs+AujRz9mxmVicMEQ8+WXXzb2119/fZUPsNatW2e6CXLct5o1a+ZXnLHSkWNEdenSxR762mzIzcszgR+rp7788suTuv0xFNy1c6cZj65Z8+YmRP7xxx/Brn+ceG3z56/gmFWsimR3XU5sEG/evBlPP/20eWV37drhx8eLtVjMz+b2bduQk5NtugyyEis7O8esk2EWKxPbtmtn9jEtLQ1btmzFO+++jXvuuQfnndcJqSkpWLNmDRjOHThwwOwfKzSbNmmSH2BxXD3uEy00SUACEpCABCRQtEBFhlgKsHQVSkACEpDAWSdw5EiCqY7ZunWrqbriWDustjj//PPNWDb8kMyqpaCgIPOBllVUGekZ5kM2q0gGDhxkuhixmonVVsuWLcPhQ4fR8byOZoyfqwddDU8vT/MhmlUjN954I24bORKDBg7E1m3b8NGHH+KGG4aZ9bASjAEIPzR7eXmZD/1cjgPM80M8uyg5xtriv/lh2tPTw4xdxYlf47aTkpNMZRcHvnYEaybA+vgjpKWlm65VEZGR+OD99/HHH39gzJgx5niDAoNgPTYGFrsUsqukm9UNNWvVhK+vb34YkJ2VheycbHh4eCIlNRVJiYlmW4GBgWZ/2c2Kbh7uHggNCzXHUnjiPAfi4uDh5oawmjXNsRWe6M710KVG9erwDwg4qetdTm4O4uPiwSoadovkcTsmVuhwHTRjOMJulNwuz2VgUBDcCg3Qzcqaw4cPmYo0VttVq179pO3x+NIzMnDo4EFTAVS9evX8wCU3L9csyxCTXTPp2rVrVzNG2uzZs/MDrGuvvdYEHTzXDDSKGqeJwc+RI0fM/geHhCAoMDD/XBY8Lh7b/n37zbhaDE14zfD7DEZ5vFw3XRzXTUEbXo8JCQlmvKfQGjXgVaDyidWHPE6eF66P1w/PI68Fdzd38zWun3943gtea9wGqxbfeust9OvbD30u7ZPftW/hwoV4/fXX8dFHH5nuqpzoMG3aj5g7dx4mfPcdAosYt4rXNv/wPNKOYRaX48Tr2tvbx/xsOaq36tStg4YN7FWOPGfswvnKy6+YoJYVcAXHgMvKzsJ7775nLO666y7Ur1/vhCotHp/jGuZx89geffRRPP/886Y7LkO5mTNnYseOHYiLjzNj4EWER5gqR257165dposxuxU3atTorPsdqR2WgAQkIAEJVKQA75180mSx8f9cs2UTlNnMljRJQAISkIAEzh4BfiBlWMBKJAYPrIYafvNw88F8xC0j0Lv3xWjStAk/BtvvoTYLUlJTsGzZP6aSg12HGIiwIoRVNuzm5Kg6YfdCVn2wMoQfmBnGXHXVADz66CNgiMFKlFdefhlDhgzFwEEDsWHDBnzxxRfmw+8tt95iggfuB7sk8XuPjxmDDu3bmyDj76V/49WXX8HQYcPMB3d+qOfYO6wOy83JNaFJj549MHz4cFNZZQ+wPjah13WDrzPjMc394w8TjjHMYeXVuHHjTHXYtB+nYfzXXyMrK9PsN0MaVmmxSoyBCj+s/z57NurVr4/t27eDYxXdeecdJvybMX0Gfpr+E+Lj4021S/36DXDfffehQ4cOJkRhGDXlhx8wYcJ3SE1Pg9XC4KUO7rzzTlx4YTdzbNwGx+viOWHVC5sX7J5FM+6DI6RipQuDEFbE5ObmmC5fV1x5BW6/faQJNDhOEkMUBow0+G3WLGRmZZmAZMDAgbj6mmtQvVo1nloz7xdffYmVK1YYE4Zv9Hv44YfzAybuF4Mpjo8UFxdvrgkGE6ysGXDVAMQfjDfVV5wnIyMTQUGBJlRi5RXfbPfySy9hyNChZn83bdpofkgY/Iy8bST6X9HfWDOk4bzcxqpVK013tQB/f9Ot9ZprrzWBFwOR1157zSybmpKKzVu2oEWL5qbiieM5vf32O8eWzTXBS/v27TFy5EjTpY7XMOf56aefzPV69GiiOU8Mk9g9j5VRXGbe3Ll4/4MPjDnHrdq7dy/c3T3QpUtn3H77Heb706ZNQ1p6mrk+OB+DIUeA5Aiwrrv2OnNsjrGp2IX2mWefwbfffItGjRnm2EwQ9b//TTQB8ncTvkNAYIA5H19+8QWWL1/BHzkz9hW75LGr75LFS5CZnZX/M8l5uH525eV5s8EGd3c3tGvXHkOHDjXXD68VjnPFQI0/LwUbxPw+v8cAiiETuxEy2F21ahXuuOMOc3wFg7/CARbPGa8ZXtt8wcOnn35qztewG26ALS/PVDryeB566KESx/06e35zak8lIAEJSEACrhPgvdyMMwB2wXfWdmws/LZP7NqvAMtZsFqPBCQgAQlUpAADp8ceewysDmEo8Mknn5jAhF292rZri3p169rfeMYHQhaYah9+IOYHXVYz8QMu18EPsPzwyu89+OCDpgKDH+gdVVDR0VG4/vohePbZZ9G3b19s2rgRL73CAGsIBg0chOi9e/HfTz4xQReXZyXYhg0bTcWKPcB6HAMHDDDVUNzHL774Ep9//pnp9nTfffdi967d6HZhN/MhmeEYP2izQoQhDMMXR4DFoILVVd9//70JoC6++GJTLcYA4tdff8Wnn31mxhm6pPfF5lh/m/2bOQaGcXyzG4OlT/77XwT6+5tulO3at8NFF3XHypUrMHHSRNSuVdt0nWMV14IFC2B1c8M7b79tQohFCxfi0cdGo0GD+rjyqquQmppiwjQ6saqFQRfDg48++thUFXXr2tUEUBxbiOMY3XffKBNixcbGYOzYJxAff9B05+RYU4sWLjKVdFdddRUef/xxExo88cQTplqHQRIH2maIxnWlpKTioYceNIHGgfgDJsDguEfdul6IJk0amy5hDANZQcW35nHi4OEvvfwSgoOC0bNnD7i5uZsgMy4+3oyfxrdXrl79L6ZMmWKCzN69e6Nly1bo37+f2eZLL71kGmMMbjiYO8MY2jIAffGFF9GpUydTvfP2O+9gx/bt6Hx+Z0REhJvzuH3HDgwbNswEMrw+eFwM91i91um888y12Pfyvhh1/ygTxDCIYqDDrneLlyxBi5YtMPaJsWZbEyZMwJSpU9CkcRMzoDxD0sWLFxubJ596Cl06d8bs2b/jlVdeRl6eDe3bt0PbNm3NYP/r168z547VW127dYPVYsXSpUvN+WOYy8HLOdkDrLfN2G+1GeAee/Mig03+fPBcBAT4m58rhnR790aboMkRYPEY+fO4Y+dObNm8yYSk7H7J7a5ctQp5uTn2KikbwMo3TqwWNGNq8YGtxYKmTZuaa9oRYD333LPmaxdedNGx/MpiwuLGTRobk8WLl+CRhx821/hLL7+I3bv3mPG1atSoccoAy/FNbuf333/Hl199iesHX4/BgwebSjX+3PHnjGNolTRwfUX+3tO2JCABCUhAAme6AO/rplrKHmWVuyLreK3V8UBMAdaZfva1fxKQgAQkUKTAli2b8eCDD2PfvlhT9cQ/r7/xBm4dMQLNWjRHRHi4qb/izZM30syMdGzfvsMETKNG3Yfq1Y9/wOWH1XXr1+Px0aNNGMZggNUZnA4ciMM334w33QWbNWtm3m44a9ZvOP/8zujb93K0bNUKP06daiqcHnjgfvTpcylmzpiBb779Frt27cbAgQNMYMYQ4rHHHsX69RtMFc2sX2fhlVdfMYNN80O+o5uVqWBZscIECwwzHF0IOQ+7MjFg4EDb7ArFwIM390/GjcPOXbvw3HPPmUonhnIMEp555hlcd91gjBx5qwmwWFVy5ZUDTHUVK4345kVWAHHbfMtiixYtzTFz/9544w3z9kWGhG+++aapVmPQx8CGAQfDjqlTpuLSS/uYKiGGc1u3bsM999xtwjUGKwymXn/9NbOPzzzzLCZPnmycnnzySbNubpddwDjuVExMrAmdWEnEbnyskGF4wC6fHPd71qxfzTYYIg4fMdxUjbG7qCMgYrc7VgXR4Pff5+DjcR+hRfMWpkqMX3/22efQsWMHsy8bNqzHhx98aMZxevCBB9C8RQtTucTqtmeffQbdul1owj/7GFgvoVat2qbSjZVbXNekSRPx6aefmW2z+o+VUePHf4WbbroJw4bdYLr3Mbh79913TRXdE2PGmK6UY8eONV0MeZx8+x6NaPLaa6+airCnnvqPWTYxMdF8ferUqbh5+M2mwu7NN95Es2ZNce+995mQlSEL94/7xXPC8JRdYVkx1qJlS3zwwYfw9fXB/gP7zfk+cviIGf+JAS+PYebPP2Pcxx+b6rL77r23QID1ltkHhqMFu7KuXrUKPXr1NG/x5M8TAyyOQcWfE76d0NGlkr78w+uNVW305/7F7ovFv6tXIyHhaJE/zwywevToabbr6IbLirdHHnkU+/ftO2Fg9YEDB5pjYcA4ffp0U6nG5XitMpBk5aGj+yw3VlQXQsdO8Gfll19+MethlReX5/ysEmSoyJ8Lhs2aJCABCUhAAhIou8CJHf7s7fKiuhg63mpo34K95MpexXViKZcCrLKfAy0hAQlIQAKVLMAA5ZVXX8W+2FisXLESd99zN36cNg3NmzUzVUysomD1ibkF8gmQxWKCkt/n/G4CKn6gL9jFqOAg7gxORj822oxHxNtnRka6+cDPdbCqyDEukdVqQefOXUwFEqtTPvvsc1xxRX9cffXVpkth1J4oZGdnmTGJGNiwC9zI22831Uqs5nrkkUdMtRC7GrI6hjfovNw8LFq8yHQrZIXXFf3747+ffmq6EDoGcWf3utmzf8MLL7xoAizuD4+RH7q5nxwbKCc7x1SPMMDi+EF8S+PkSZMwY8YMEygwAPh/e2cCZldVputvn1PzPFelKkNlnkcgI2QGAgEEpUVRQWkZFGdttR0uKOi9tt1tK7R95dotIKgggqJMARJCyMCQkYyVVOZU5tQ81zn7Pt9/alcqlZpOJXUqkW/fJx2o2mevtd69D8/dr9//Lx4UL17pFPt7JSYlhdZcW2s9v9LT0qy8jp+jdLnmmkW487N3ISc3x9I7HJtcuI6f/J+fmHD76te+arLOEwdM73BeFFNMILEUjmumQHNd9n4KWBka5RrLtVg6x/NYwvnDH/6w5T6xwTi5MGVG0cDG4Rz3gQcewDA23m6+z2zA/73vfdekBkXanXfdiblz5uCBBx5sKYmjdPnd736Hp59+2kTh1VdfjV/84hdY8uqruP+++zBz5swzmrizpO5LX/6SrZec+Yzxc3Nmz8Hd99yNf/vXf8Wx48dNIjGtY//LYzBoAopjMIU3ePAQfPc737F1UbJRuPJZ431ds3o1nn3uOVub98zynrM3U0x0jCXiKOvY4JzC03sGmdBjaSslKyXjtq1b8eCPfmRyh2WovDdM45En02XcvZKih2t4880VJs4WLliAb/zTP9m4Xgkhvz/XXbfYyg95sBzxe9/7nokqL40UKiH8nYmf1gLL+08DdyB8felSe96mXnaZrYGylMmxUMni6f9FNtDUZOW0fC6YcvMYbN6y2Xpg8f7c8tFbTAr++r9/jbjYWFvj3n37TDTdeOONJgqXLFmCBx94wHYHZYLQOzoTWORM2UZpzblOnz7d+PB5oIAOCSz1wOrj/+RreBEQAREQgb8DAiFJFeqV1fxXm1V1XXoogfV38CBoCSIgAiLwQSPA5uv/+8ehXlKUT0xOBVwXO7Zvt15DfGnnS2hpWSnKSstQUFDQIlz4gnzzzTef0Tg8lMDahG/+0zetbI3SxUqcXOCn//pT69/DptDf/e53MWrUKMNNOcBm2RRiTGo89NDDyM/vZwKLUogyguMySfPVr34Fjs+Hb33zW/jed7+L+QsXWm+gDRs2IjMzAzFs/m51VLB0E+f+kQ9/xPoQUYadLbBeNrlDgcWUDMvaWALHcjquua6mFhWVlZbEYmnel770ZTz11B/w0ksv4d7P32sNujkGBQQFFUspKec4R+9/56JooOyg9OBamfhiMoy/59ooq5i+mjBhoiV/KFCYXmFD7fZ2ReQcmUTj/cnKzrZ5e2v2mrZ/+vZPWzklyx65myRL49gXjAfTXBQgef364ZaPftTEBaUD+UdFRzVn7ULNxcnrhg/dgLlz5pq8oQykKPIOiiNKM7Jlaor3jMKCZZBeAsvbhZBCiPP+2C232Jy9Bt8UZDNmTMddd92NBx940HbDpPDzR0WF/ndDF6itrbH5UGAOHzEC/+v738fw4cOtVJLzJvfP/uNnsXXbVttMoHWTcm+uLOnkfXrhxRdxz913W5+m1utgieOat9dYQ/OinTstgcWyu6uvXtQisDg+BRYlGEvreO9XrlxpJZgsmWQPKR6ewGIajNLI64FF+cRxuPMn0188uC4+c3ymnnjit0hOTjnjP0MhgfW68WktsJhYYyLr9OHi+PETJubaCix+Px588AF84tZP4MMf+bCVlf7f//tfSExIxN333GP8KDC9tB+v+7Wvfw3ZWdlnzMUTWN9obuLOckSvuTzLcvl9pbD2BCSTef/xs59ZDzGmAL01f9D+O6v1ioAIiIAIiMCFRkAC60K7I5qPCIiACIhAlwSYLOKLPftCUS4wBbVgwQIrvaK04VFTU209gVhmxNIiln/x4Es5y51ap6kosDZu2ogvfuGL1kfLE1Ms92KSZcCAgSgrK7VU19e/8fWzdujjuHy55wv2lCmX4K23VlhJGNNETK5QEnDXv7+98IIljSi2+CLPJA97XbXehY99gyhJ2NOJZVAUSJ0JrOqaanzj698wecUeT2PHjrPrce4ci72mmCL5wx+eahZYn8fCK6+0Mdj7ihJnxvQZ1v8qJoY7D4Zi25SATKkxjRQTHY3qmhqTSBQfHIt9n9Iz0vGlL37JeP3LT3+K2VfMxufv/Tzim3fG4xgUcvyb86EgYD8kNtluXeLlJbS8dI8JrKFDTfy0FVhs7H7Lx27Bf/3yv6wEkmksNub35k2pQRE3cMAAkyxMulFQ8RnxBBGfEabPHn30MXz607fbvTotsM5MYLF/FtfI0ru2Amv6jOm45+578OMf/9ikJ5uit+69xJ0fmX/nc8Cd45iK4AAAIABJREFUJL/73e+cIbDI5p577jFxRK6td3WkYOHvmRZjkotJpzvv/CxuuOFDZ6yDaT6m05iQK9pRZP2+7rv/Puut5SWwwhVY/G7x3nu8mJrjs80SWn5vLC0YDODI0SOIjYltdxdCCiz2H+O9Zu8slrQyQcc1effU+6JbYnDXzjMEFqUTv7tsfE+JxD5dlJ/8PmRnZ1laKj4+wdZNNrwmG+9zZ07eJ6/8kc8eWa5du85EHb8LvEdMczGdyLX94qFfYNzYsZaq4zV5Pq/LnQo5trfzYpf/YdIJIiACIiACIiACvUpAAqtX8eriIiACIiACvUGA6ZncvFzk5uRavxtKCkop7gIXOlzU1tbZCyglRkH//khKTGx5qWVSg7KBZVwUBI888itLEY0cMdJ2h7vzrrswf948/PnPz+GnP/032xWv5PAhPPboY5ammj9/gfUJankBb2qy3d2YRmEahJKMgoqNpZlyKS8vM8GRmppmzd2Z5rqPvZpeftmSS5RE/BxfnCl6+Icv2S1N3GtrTK5R8IRKCE8nsHbt3IXP3vlZkyRMKPE6lARMJ1H0mcD60pfxBy+Bde+9LU272byafaVmzZploo6Sz6RHTTUO7D+I+Pg4cFfGPbt3W8+jwsGFlq7ivP76/PP4j5//3DhS0HFsyj+WATKhxetUVFTinXfetqQME1tkwdJG9m2ioKJk4JpZAldZVYn8fv2sUb0JrGFD8Z1/bkdg5eXhtttux5O/e9IECQUOm7bzflBWUEjwD0UXU2RMSo0eNQoPPPigSRmew7TN//zPf1sDcKbTrrjichNYryxZgvv+1/cxa9blp3tgPfggvvil9gTWHZg+Ywa+8uWv2Hq2bdtma2cJmrdzI3c4rKqssrnwWWQPrNYJLEoaJukoYNgvi0LFu39MTG1+/30MGTYMe/fssfvENB2lLZ8froMJIcopfoZJJIosJqV6KrDYBJ8N0Hk9JhFNArmuyR42g+fmAtz9kik87iBZtHNX8459/91uAoulh3w+KGyZUmTTdT4r7OVlrV1tgwXXdlWkfGqdwOIzxs0JWN5Hbmx4z50eWTrKXm3/+I93WJKMkpYpx9lz5lg/M+74SLmalZWJ9PQM7N+3H6Wlpyw9SIZMvlEqcmdQfkcpY5kk++SnPoUbrr/e1kzBye9p6alSfPFLX7QeZDpEQAREQAREQAT6noAEVt/fA81ABERABEQgTAKUUhQWlB0sD6PAGjVqJFauXGVXqqmuthfWHUU7kJSYZEKJkogv0nxBZUkQhQrFwJq337b0C6UHBQd3ePMaXTOxwTI6yhn20OJLLUvhvv61r9sufq0lFssamQ5hH6Irr7rKkjWUP3y5fvzxx3Hk8GF89q67TKjExsRgxYoV+M4//7OJGkoUCivu4sbG3Jz37bfdbuWKtgthJwKLu9qxbC8/P99KHOPj4nH02BHb7ZDJnuuuv84SRJwHBdvn770XVzbvOrd7z248/NDDlqxiCZdXkvjOu+/gd0/+HnPnzcEX7v2CCaWtW7ZafyumcCjIOH+WH5L/Rz7yYTBxw8Qbm6yzQTv7HK1du9b6I3EdLOFb8sor+J/f/KZFmDHNQ5nE0jbyZ7kfP9epwOqXhzvvvAvr1q2z5vUDBw3Ebbffjvx++ZYa4zxYjsfk28QJE/GjH//IemXd+vGPY+68efZ8vP3O23j6qadtdzv2UqKsoYRir6/PfOYzJmoonVhS+OCDP7Lm/GclsO64AzNmzsD99/8Ar7/+ugkoNmZnIozPEZ9NNr7nc8OUINfVVmBxLnz2WFLIZ/IrX/2Klb/xs+ydtbNoJ+655270y883wUapwx0N+exSClJ8cY7s0fXxW2/FihVvmsC6/777cfWiq8NOYFEyUcReccUVlsjzem211wOLkoc7Gb733nv2rLdOj3FdvA9MjlG2Zedko3BQofWoGj5iOPoX9D/jG19VVWWiio31584L9cDid4H3hL3kKGj5d9HOIpN0LCG9etEivLl8OZ548knbufLSSy61lN2Agf3t+WCpMJvs87njd4+5Qn7HKDMvufRSE2InT57Af/7nL22dTFrx2ebB55tikWtkvzw+HzpEQAREQAREQAT6noAEVt/fA81ABERABESghwSYajGB9dWv4cabbrQXT774Mk1FcUJBwYbOFBN8OWXzcooCihMmr5jYokCg/GGZEwUOU10HDh6wXd+4cxpLmCgmmBRiyR8lFmXEXXffZSWF3os7S6yY8GCpFCUVG2EzFcYytx/84Ie2eyF39vMSOpRwFGNMEVE6MTlC2VFTW227sTFpw/WwPw/FBUUL587U06tLlpjkYbkURQZTXJQoef3ykJmeiRMnT9i82BibiReWRlEmcHe+u+++y5qb82DT+Ndef816LDEhxjlwnRQoTGNRrHDXRjKioKmvq8eIkSNszL1792LQwEEt6S+KBYooJpEyszKt+TilFFNu93zuc7hkyhRL2vz7v/8b3n3vXWSkZ5hQoBCkKGD/LIoQNuOmPGDZFsf3Sg2ZqmHfK/bAuuOOO6xMkWkcrjs2NgbZ2TkmwyoqKzBt6jSTg7FxcSbnyJ0pIq7JH+XH8WPHrZn6Jz/xScyeM9sE5/N/fd7mz3I2JuconXjveL/Jnkkir4SQa2fp4LTp02yufA75vHEuLGVjEo1zYUKIzxybjJ88dcoSccOGDrWyUUsCmSxpwL//+8/sOWCje4ozJvD4fF511dW47VOfRFx8vImqJ377hKXjvHQenxfeH86PibZXXn4FP/mXn1jvMEpKr4SQTeNZfscyV8o1zovyiWk+yjomx3jw3vPeUsx6/a/48/YEVuj5CdhOjjy3df8u3k+mrSig2NCf3wWO630nB3hCyHHgBl3r28bn0xNYbIC/fccOS9dRQs6bP8/uDb8HY0aPtrQV02cUeLw+r71+wwZ8+KabLInIXSw/c8cdJi1/8+ijSE1JMWFFEeWVDpMxk1dMc1IKUlByHUy28XtDEcjzWQLJ74UOERABERABERCBvicggdX390AzEAEREAER6CGB0wLrq1bOtWnjJjA9xOTRmDFjbNc2CoHly5fjuWefsybps2bNtN0DWRZEwcIXb57D0ji+vFJ+MTFFIXX77Z/GzTd/pOXlnEKJaR5KJX6OaZvZV1xhgoF9qiivtmzeggULF5j0ovBgPyG+nLOcjedT6Hgv+3whZyqK8ofCgvKD8oQJGEoK9t16443lJhUoovhZyoQtWzbj+utusJI+jkE58sennzapxDTJkCFDMW3aVJMiLDtkOSSTMpu3bDFhwZd576C0YBnVWytWWE8jBz4Temz0zs96uxyyh9Crry6xdUT5/cgvKLCSN86X6+F1inftwhvLl4OpMMqNnNxcK1dkAstLq1HscM1suN/Q2GhCgak39jCjGKRIo1Tg+pnmotThQalGQURhQT5M9rCf1tKly7Bp0wZUV9cgLj4OY8eMxeLFi1v6LNm8iotNAFFisSQuNy8Pl19+uclNT9RQoix9fSk2b96MuLh43H77bSZDOVeyp+DkOr0SRD4jFIqUU/wZ583njDtSUk5666KwpNDi/ClcKEMo61r3geL5LJejMKutqTH5OHHSpDPO47PC55pJv5MnTsLv99nOhrxPTPrxOdi06X289NKLuP666zFm7Bjjxms///zzNj9KUY7L+ZIJS0gpeTmfzo6OBFZHn+F9oRwmzw/deKPtaLhl82b87D/+w6Qk05A8uCaWlPK7xlLIX/7nL3H5FZfbd+lPzzyDp55+2pJRFK78HnEtFJwvvPAiNmxYb6WqLP0ryM+37+TadWuRmZFpcotyjve3vcb4TOqxDJeSjd+Fu+66E9HRMdi7Zy/q6uss3ceE4UdvucXub7L1/dIhAiIgAiIgAiLQ1wQksPr6Dmh8ERABERCBHhPgSzlLhNgPh9Lh0d/8BqlpaZg2dSrmzp+PvObkBF98WQL3ypJXrD8Oy6O4q1lOdqixu3dQdvz8Fz9H0Y4dtovbddddd0aZIM/jC+67776HPz/3nCV6mNDw0jQ9XQhTP5Rj0TFnJl/CuR6lBIUARQZFULiHl77h5ynz2nvx5zlk6Z3jNcpuPRbTPY0NjQi6QbuOV4Z2xnxc1+QVkzqca3vX6e78WRrW1Nho/Dhe6+RQ23lRBFJgcdfHjsYMNZ0PmtBoj0Fn8+I9aGriugKhe+mP6u4y7DzyaGioR1RUdLs7OfKc1veJc/T5vH0jwxoqrJO9BB4bm3enHxQ5U/RWVVaarGLfrDWrV+P//frXlhbzdiFk0oklsvybzy53umSSjAKMcomC+mtMq2Vm2nwptijjli1bZkmrK6+6EoMLB9sztmfvHjzzx2dMIFKYsvQv1HD+7OPY0aN47PHHcejQQXzqU7dh8uTJ1jOOjf25IQMZcx5MZlHinsvzGRZonSwCIiACIiACItApAQksPSAiIAIiIAIXLQHu7PbGG8usjCohIdFSHkyesKSorTihXOCLMQUWEy4sKWzdw8qDsKs41Jia6ZaOZAglB0vf+NI9YsTIiEiEi/YmaeIXPQE+62zwztQak2/dOSiBeHjfQ16DST/KIpZv8mDqcPWqVairrzcZTCnlbWbAxFp5WTlGjzmdFuR3mCk69sxi6qztbobcNKCk5JCl3LgTZ0cCkoJt/759qKmttf92cEymMXfvLrbNH5jyY+87Juckr7pzt3WOCIiACIiACESGgARWZDhrFBEQAREQAREQAREQAREQAREQAREQAREQgR4SkMDqITh9TAREQAREQAREQAREQAREQAREQAREQAREIDIEJLAiw1mjiIAIiIAIiIAIiIAIiIAIiIAIiIAIiIAI9JCABFYPweljIiACIiACIiACIiACIiACIiACIiACIiACkSEggRUZzhpFBERABERABERABERABERABERABERABESghwQksHoITh8TAREQAREQAREQAREQAREQAREQAREQARGIDAEJrMhw1igiIAIiIAIiIAIiIAIiIAIiIAIiIAIiIAI9JCCB1UNw+pgIiIAIiIAIiIAIiIAIiIAIiIAIiIAIiEBkCEhgRYazRhEBERABERABERABERABERABERABERABEeghAQmsHoLTx0RABERABERABERABERABERABERABERABCJDQAIrMpw1igiIgAiIgAiIgAiIgAiIgAiIgAiIgAiIQA8JSGD1EJw+JgIiIAIi0LcEGhsbUVVVhdTUVPh8PpSXl8Pn+JCYlIhTJ08hLT0NUVFRNkmeW1tXh9iYGMTGxtrPqqurEQgEkJCQ0HJeeytyg0EcOXYUOdk58Pv9Z53CaweDwZbr2ngNjaisqkRiYuIZP2/v+nV1dThx4gQys7LQUFeP1LTUTsFyzZx3UlJSu/MJ565UVVbCBeDAsWuSnccsnOu0PpcseC3ek/Z4HT161O5ZXFycfYzr9+5JoKkJQZczOn04jgOf3we/z4+Ghkb4fE67cySXxoYGpKWng5/p6GhoaEBtba2Nz3ErKytBCHHxcaF7lnD6nnEupadOIS01Df6o0L1vamzCiZMnkJOTY2s8l4PPTpRd18HevXuR3y8fLlw0NTYiKTn5XC7d7nN6/PhxZGVlISYmpoV9XV29PafR0aHvinfwO8T7l5yS3LLOgwcOIj0j3c4/p8N1UVlVZd+99p6Rtteuq61DTW2NPTe8X+SWmJCA6JgYREdHdzwVlzTPPDp7Ns5pTfqwCIiACIiACIhArxOQwOp1xBpABERABESgNwjwZfy9997D9OnTQSmydetWExL9+/fHhg0bMG7sOGTlZKF/QX8TRNu3b8fgwYMxcOBAm05RUZG9DA8fPhwpKSkdTpGy44knnsDHP/5xk0atD75Ic9yDBw9i3LhxJkaOHDmCmpoanDx5EunpoZf9zMxMjBw58iyZ5bqunb906VJbx8aNG3HpJZdi4KABcINAkP+Hhws4PsdEwvr1602+TZw4EcnnIDkoct5+++2WOTU1Ndka2rIgu3fffbfLW5icnIThw0eYkNi9uxgFBf2Rn59/hkyi2Pr9736HefPn2+8CwQD+9MyfMHr0aBQWFmLp60tRUUWh5NrngkEXCQnxmDRpkv1+7dq14Ly5dsqM1gd/V1FZgTmz57QIF/JtffCahw8ftmeB41OAbNu6xcbJzs42icTnh89Iv379jPtTTz+Fa6+9FhkZGXYp3tdXX3sNH77pphYRxJ9ToPK6p06d6pAVn8/LLrus5b49/9fnMWniZOTm5eLxxx7Dhz50Y/OzvAVz5sxBXl5e6Pa7/MOHwDXZyHWUlZVi27ZtKCsr73A8Pi8L5s9HVHS0zeuVJUuw6Oqr7bnkvdiydQuOHT1mc2rNk4xffvllE7GcW5Q/Cnn98vDKy68gJzcHWVmZAHzI65eL4cOGd/lstD2hpOQw3nzzTcyfP8++O6WlZTDnGLKpSEpOwqSJk4wv57J582YcO3YMc+fOxZYtW3D8xHFjkJKcjAkTJtp3rLS0FOvWrTOpzYNyjGs82Xw/HBeIiYnG6NFjMHbc2LDnrA+IgAiIgAiIgAj0PQEJrL6/B5qBCIiACIhAmAQoW44cPYL16zdgwrhx2FFUhJKSEktjpKWl2Utxv/x8FOTnY8KECSYdKBcoQfhie+DAAZQcPoyG+nqTS3wBpsiyl3jXxbbt21FeUcF3aTQ0NmLTxo2YMGG8vVA7Ph+yMjMxZMhQe4mmTFq/bp2dT/ERDARQUVlp88nNzTUhRPlBMeLz+7Fh/Xo01DeExASCqKqqxt49ezBi1ChL+/Adfvy4caioqDBxRElGETF06FBMnjwJe/fuM0E2fvx4JCclWzqpJ6kpipytW7aYaNq7by/27Nlj1+GaKEvIeMGC+SZRdhXvDlmUVgfZBIJBEy6c6+TJk00KUeIV7ShCQf8CHDx4ACkpqSaoKG8472ee+SOuvXaxcedYRw4fxiuvvorJkyZj9KhR2H9gv4lJsqS0oFjitePj41FWVobVq1YhLj7e2DLt5UkqyiemuUaMGIFhw4bZeKtWrbJ7Vl9fb/wpMA/s34+iop2WJOL5/ByvQRnoSUc+J5yz3+/DU089jWuvuRbRMdEmK7mGXbt2YQzXFBeHgoICWzd/fujQIVvPsePHkZKaYs9JbW2dnV9QkI/c3Dy7j1wLRcvvf/973HzzzcZv+fLlJkkpXTZt2mTP6MKFC+2Z3Llzp0kc3h8mxyj0+BzzOadg5PWHDBlsgpWKa+XKlZg4YQJSklMwfsJ4MEV44OBBvPPOO7jmmkX22fLyCrz//vtITWVS0W/3e8yYMZbEWr3mbRwpKbH7y/s5ZMgQe575HFIoHjly1O5Jbk6u3efuHuRcUVGJZcuWYsCAARg7Ziz27N2DysoKm7dnsJISE+0+8vvM9a1bt9aE4vjxE0xSUTxzThs2bsTAgQMwZvQY41ZcXIy317yNsePHIj0t3Z5dii3eW65vw4aNyM/vZ6JWhwiIgAiIgAiIwMVHQALr4rtnmrEIiIAIfOAJbNmy2V5GKTRysrMxddo0e8nnyz2FB9NVw4cPQ2HhYJMk/B0FDWUD0yfl5WU4VFJiJXss3aPMmTp1KgYNGmQy4y9/+YtJJ4qtxsYGrFu3HlMmT7YkS3lFuZ2zcMHCFtHDlAhFE4ULx6aQoNiiKKBAufSSS0yeUQE99vhjGFw4BImJ8eaEKD52795twoSCgCVy+fkF9sLOdNaOHduRm9cPqakpJpz27dtv4oaygiVuI4YPxyWXXNJ5KVWbJ4bzZZKrqroaaampYJpt0KCBiIuLbxFYy994A4sWLUJuXp79jNKAksA7PJlCMUh+V155pf2KQquoaEczS9g4Y8eONXlELn/9619x04c/bOkZcuRaKI4oGCgbuGZy5JxYplfQv7+JSN4bzoPnUDxR3vBzlB5MJTFpw3Xl5eXi0ktDKafnn3/exCT5zp49G41NTVi2dKnNg9em6OK6OA8KD64jNzcHw0eMMFnEtbz66quYNm2aPTcUVNVVVSjaudPuF8enGLv00ktbuHDefAYotbhmJrMop5ga4xq8Y/uO7Vj51kq7Dsdlomr0mDG2Fq6DzzbP5xz37N1rciYmOtrEGO93fFy8XYo8mGaaNWuWlQfyeOSRR3DjjTfaGsl3//79eOWVV+wZTUtLtTRgTEyscZ4yZYpdg9enNOJ6KPiMq+OY5KLY2rdvn82FUm/Nmrcxf/58+z6Fc/B799ZbK+17RYFFQUUR2V4pJpN8fCYoDTn2nNmzEZ+QYClFMuYaamtr0NDQZJwyMtJx/NhxrFy10p5Ffj/I8dFHH8UnP/lJG2PZsmUmtLlGHSIgAiIgAiIgAhcfAQmsi++eacYiIAIi8IEnwBfTtevWoXjXLntZXbd+PWqqq1vK3/iiTknBMiy+CL/xxjIrtWI6i8kRvohTvFTXVJvgWLN6jf1tkqlZYDHlQiFQX1+HZ599Dh/60IdMkJUcOoSDhw7ZCzxTKSxXZKKGwsITD/V1dSgtK7V0C3/HOVByUGY99thjuGbRNdajiwc/s3Tp65gzZ66JGYoLCgPKA76o8wWe1+bc+HuvjI7nUDowPXPZZVPPKGfr7AGh0GBiZ9XqVZag4XqzsrIxbtxYbN+2HVHRTPnEYvfuPVayxTWzJ9Nzf/6zCSzOqykQsHQP0zz8zOEjpwXWsaNHLRFHqUBR4KWJZs6YaT2mmIq66aabWlJIRw4fgeODsWLijOIoKioax44dtRQW5QpTSBRAlEFMLlEmJSQm4MTxE3aPKETIhTKK95yy4tjxY3jxxRcx9bKpll665pprbC07duywf6cAoWQ8fLgEaWnphozr4327/PLLTT6uXr0Ge3bvtrQYpREFD6XVa6++imuuvdaeIY7Fe8vP8rnj74uLd1naigw4J66ZEo88QuuLMmnF54eShqkirjUjM4NVgiY6eV2m93jvi3cXo7ys3NJPiYlJdi2Oxz+WSlu92soAOU8ejz3+OBZfe62x8UQQy0XramuRkpqKqqpK45qQkGiij4nBkydPYNjQYbZOfob3IiQIQz3kTpw4jry8fnb/qyqrTKTdcMMNJsi4hq4OrodjlpeVITklxVJilM1ego5/e4I0LjYO/Qf0NwavvfYq+O9kzxRZSGDWIjk5xfhw/qNGjbJrUbYxucZ7SwHN+0sR+8lPfQq1NTUmTxcsXGjn6hABERABERABEbj4CEhgXXz3TDMWAREQgQ88AUqfJUuWWDKDYoMvtezxQ+kQEhFNaGhswpULF7YkmSgbKAn4ks8X4F27iu3FnGKIkoW/YxqGcoEJLIoS/jNf0I8fP4HsbJa8+ewlm6VJCxYssBdkSiQmP9griLKK0omfsVI8wEoK+TLNl2qmqx577HGbA2UWxRD7QS1bugwjRo5AWWmppbwoEdoKLAo2HitWrLB5cd18Yed8PDnWnQeDYo8lkUU7izBoYKH1NqI84Et98e7diGtuck8uFEWcBzk9/dRTuO766y3ZwjI8SkMKjPYTWEXGkwKnrr4Oa99ba2kkpqYoMObMnWvr5/2jeOL9mzFjBnYX70ZVdZWJC4ofcqO0Y1qHvZY4Z8o3luGRF6/LebOckr2RWgssJuVYHkhJx7I1lthxHUyErVu/zuYWEx2DI0ePIiE+lGZiyRwbwVPcUTYxfWclhNdea1KHpYinTpXivffetcTTvr37rLk7ZWdpWRn27N6Dmprq5rK1JJNF9XUNVkrJTQAoXHL75WHokCEtiTkmzp555hkTbWyYznvB/8dz2b/N+jg1J9SYWCI33gOmyo4eOYLqmhoTYRRdfP6ovzZt3IShw4dbo3MyZLnd66+/bmkn8mTD+uqqapsDk1y8Hpuks1yQzynFF9NmTDiF0ndV2LhpE6ZNnWqfoSTis08pyBI/3lcerVumU8SFDn4PQiWaTGzxu8ESUd5zcuY4IXHlYv/+A8Z41MhRJsg4Dr9fqSkplhRjgo7jeSW0XuKMo3CuL730srEiI66b5bG7indaXzSubfnyN01wUo5FtbMhQ3e+PzpHBERABERABESg7whIYPUde40sAiIgAiLQQwKUGBQWfCn1+j9Zw/SkRDQ1NJlUOHHiJKZNuww5OblWCsaG13yB52fY84m7rFE2ZGRkmvhijyOmhJjSosAaN3YsMjIz7YWayY3Fi69FbGyclbjxD/sTUbR4/bW8VAcTWZQQfNF3XZbHncLVi67GgP4DLG31xBO/xezZc+yl/a233sInPnGrJX2YYuELOssNvebdXgKL5YSUNvwMy9H4e6ZO1r73ngmCKZdM6XYCiwKDzc53Fu20+Y8ZMxbr168zacGEE1M+p06V2d8UY1wHxQ+bmV+18CpLPlE6kL8JrDYJLLJmyomCaOCAASaF/D6f9RJjGRvlHcs1vd3juG7yHTlihJVH+qOjTC5w7QMHDGxOsqW2fIZ9nHjN8ePGW+8kCiky27d/v0lHL4HV9tFiH6jDR45gzZo1JnGSEpNQW1drciQ1Lc3uGWUN7ydlCZk3NTXiD394CtcuXmxpP4qiU6WlqCivQEpKsgk+Cr9hI0YgKzMLp06dtHmTAT/PtVL0kNXgwkJk5+SYyOHPKcQoc3g/+WxyPgMGDrDngJ8fVDgIs2bOare8zsouT5y0RBvPLTlUguEjhjfvDujg5VdewvRp0+1ZptTi8032fIYoeseOHWOJrrLycvv+cO18zim6KO74z0yvMWlHucd/P3r0GPoX5FsfN3JieSLFHRN0u/cUt22R1qyuQneBLospOjLhs8GEHu83SzO9HSh5HmUmeVm5Z2OjsaQcZr87ft/IjFJr9549NtcBrUoBKSuZ6uK8uAbK0YGDBlmCzjsojGvr67Do6kXGRocIiIAIiIAIiMDFRUAC6+K6X5qtCIiACHzgCfDlnbv2sQn34ZLDobKuEyctQcJ0EV/QmR6KjYnF4KGD0S+vn/WSxxxyAAAgAElEQVT6YdkYBQKbafNFlj20KKIogkaOGomE+ARL5HDnPwosvuCyNI0SY936DZg0caJJl8oKNpzGWQIrIz3DPst+W0y0hHZBa0Lx7j2YN3eupYiYOnn22WfxmU9/BmXlZfjLX/6M22673fr6UMSMGDESM2ZMN2lhDc6PHDH5EeoZ1N9+xnmzjw8TTixN8/v8LQKLbNrrJ3SWzHFdbNi4AXW1dc1N2ndh5IiRVgpIBhQzlAlXXXWVCRfKhN//4fcYXDjYhAOTTkzBMIHTnsBiKouykM24KeXYV+rgwUPWRJxcWH7pCQRPYDFRxQQTZQlFBUs+s7MyLWHEdBFlB/nzGsFA0FJXFJYUOJwj7y9TRXPmnt6FsPW6KQ8pOXh/uAaukeui0GSqh2mr9HT2PUvCkCGFVi5HUcbk2SyWFMbHWypo+bLlJtV4j5nsYZqJEohzpghisu9wySGMHTfORFVHPbA4NwoxJqNY0soU07Rp09HQUG9Ci6Wu3enVxBQen3mm9rxdMn/1yCO4qbkHFseh2Fu9arXt3sdkEsUTS1N5ZOdko6mxyZJOlErjJ0yw78uq1auRkZZmjer5eQohbi7gj4oyJRUIBK0Zeij11b2D8+Q94PXZe23ylCkdCixe0Rqz7yq2Ru+ewCLPTZs2GttRo0a3NPJnKeXOoiJ73iix2POO6+R3IrS7oWPfR6571qyZtrkAf2ffGccxMadDBERABERABETgwiYggXVh3x/NTgREQAREoB0C1tA6JsZK6KzJ9R6WbtWYzHB8jvVnSktPR1YmS/dG2UszS64oGvo3lzFx10CmQpi4ofDiHwoSypGly5YiNjbGElde2Rlfhjkm+whRgFw2dWpLAovzoLygxGBqhJKG/Zb4As4G2iw3pMCiBFi1ajWuunKh9dFiI+8brr/B5BUbZ8+YPt2EApNFFCmcMyUWX7Ip3ji3mtpaezHnC/wbbyxHfHycJYYCTQGUHC4xIeWVUnb08HCuGzdusB0QvXJHSjE2X2f/KZaRvfzyy3ZdJqm4jj//+c+WoPESM5RGTPS0LSFkOotCztvNkKKK6a5tW7ciOzsHR48dtTl66S4mbl544QUMGzYUZaVlGDJ0qHGmxBk2dCgOHDxgzeW5Zh5MUFF6UfDw/nnSkske7so4vVkAtl0718BzKY3IlOeyBxpL/1i6yfvMNVmZX26ujc2EElNy3m6SfEZYhjZ16mUmFikRycpjQhnGclQK0ksuvdSegY4EVkVFOZa98YaVFrJ/1etLl6Kk5JDxHzRwoJVUeim1ju4jk2RMHWVmZGL0mNBOjzwe+dWvcONNN5nI4cH7ze/GSy+9ZDJx9Ogx1vuLfbqYZKI0ZB8tpggppSha+Z3is3y4pMSkFcfibn/+aL8JL4qgj370oz1KMlFCukEXkyZP6lJgUQjubSWw+Lzy+eL3nc8s5RrvHe8Rv+d8/ngP2WOM4re+rt4Y+KJ8SE0Jfd/nzZvXssNhRXk5EpOSbO2t02D6D68IiIAIiIAIiMCFR0AC68K7J5qRCIiACIhANwjw5ZqNprnjHBtMUw5RhmRmZVoihSVb/frlW0Jp85bNJhOYPqFcYNKof/8B1peJAoaJkJDEGoTo6Bj7dyZ0KFIoJX7729/i1ltvtRdiJnn4Mk95woPn8oWcUiUpKdH6BfEFmuPxs5wX0yPs/8PEFMUO51FScth2dGNqhukbS7I4sMbanCPlEK/NMsbMjAy7FuUIX9QpTnisWPGWzZnSgWumoJg5c6Y1pO/s8AQWU06UJEym9cvLs4b0XCMbxFOuec2zHQA7du40pnzJ90rOmHrbtXOXpcmuuvIqG5KCiDKJ7DhX8tq9u9gSL5ROFA7cNY/zZLKKSTCWecXHJ8Dn+DBkaKg/FEvFoqOirdyR4w4qLAQbxG/dts2uSbHG6zM9RdHHn1EmUfTxWh0lgyg2KMco45hWo2Dk/fSanVP6kC9/x90EvXI5282yaCdycnNsHexrtXnzFpvH0KHDGPCx/lwHDxywXQwphniN9gQWGbD8s7KqChMnTrL0F8tajx07bjsN8tnj85KZmWW7T3plsq3vKQUO02Scv1fy6KXv2iawKKi45u3bt1nKLHQPgejoKNtlkuMX7SiyZ44N4plm4lz4HeOGBPkF+Sbs2Lie94DPIhN6FFh8zsM9TGC5rklJzoX8+f2hmKKguuKKK+ySlI67indh7569LQks/pwCkuth+S8b0lPiMo3FZ2brlq22EQHvFyUgx6GopOClwOT3cdE119imD54I4/PCZyc/v1+4S9H5IiACIiACIiACESQggRVB2BpKBERABETg/BHgrmnr12+wl26+lLJfD0uc2Jtoy5atKCsrtZdzNv9m/yU2tGayhHKFkoaSxxIazS/3J06exCVTpiDddgeksgkdfLl++umncfPNN7ebbKJAYfKDO/mxOTxFElNhFCjsm8R+PdZbKyMdr7/+mpV6sdyQ47KZtSdeOBcmsZgm4cs0BQgPSgn+jC/bFB8seaRY4LhMCLG0Li83137HJBPLskaNHNkpaL7Ub978Pmpraq0ZemNjkyVWuA7yJBuOScmRmJhgMqD1wd8xGXXo4CEbl0KO8+DB9fD3FFhMuzCpQ7HHBvlJScl2DtfNhBnLIl977TVMmDDeepZRnFDocTzb8bC5MTh3CaRY4n0mDybjeP/5z/zDe88jhuVtDlBYONjkWHsHk0gUU0xbUXhSnBQOLkR6WnpLeRvFGIUm5+El6SjdmGy75JIplghjaWlx8W6bE9dG6cYyRibj+O+e2GG5JVNj/JlXEkjWFEIsg2TSiZwoPfnccD179uxu2TWTQolzbXtwXK6DomvosGGIjYlpOeXJJ5/AokWLTIDxXvO5Z8Jq+PBhyEjPxKGSQzYmyzNTkpONNWUp58Pni/eMkoj3lc8DpdJbK1Zg7tx5eG/te3ZNJusozto+G935hnPXxaDr2nict5c05DNNqcyf8+C8yIdrZRmuV+bHe8bPUN7VVNdg3PhxGDRooJWpcoOB+AQ+s8CkSZNtfpTUXC+lH58vPquUWVu3bkNjU6PduyGDB5vU1CECIiACIiACInDhEpDAunDvjWYmAiIgAiLQCQGvZJCigP+cX1CA+OY0CF98KSqYFKGIYLqGB2UChYs1326VHKHg4gt7dlbWWcmdQFOTpX68HQrbTokv0xyPwoaigHOhxOCL8/59+6z9DhM9fElm2SATQkwWsan4zl27TMxQBlAS8KWac+TPWpczcQwmmyjFeK63Cxz/mS/dTOjwBZ2pFO5O2J7waDtvCgtel2Nxzrx+Y0Oj7dDGdFlnvbS8RuO8BufJnQwp5doeZE1JxHm2Xg/HowThcfTYMUtYkSHFXG1NjQkp+73tyEeJlmiCh5/jP3N9TDaRF0Wg7dznhnod8XyWKHbUpJvzIStPkPBe8Xq8X7wHfA4o4VqXS1LIUaRQKrZOQ/Hn3q53vL/c7TArK/OMtfJaFFYcx+tRRSnKn3MtlFD8OYWb95yyVxOFHvmd3l3wTLocl+NTMvHZa33wORg8uNBEG9l43xXKIa6T3wt+nt8BciV7rpvzYCkdRRLnwt/xb55PWTRs6DBrfM9rUOb1RF5xnocPHzE1yWfPa8zO7yvXwTl6z68n37hzZWHz3L11cu38DFnyXpEl18mfc268l94zRzFLOcqf81xen88w1+zdG8rFthz1H2AREAEREAEREIELi4AE1oV1PzQbERABERABEegRAcoOvvB3R171aAB9SAREQAREQAREQAREQAT6kIAEVh/C19AiIAIiIAIiIAIiIAIiIAIiIAIiIAIiIAJdE5DA6pqRzhABERABERABERABERABERABERABERABEehDAhJYfQhfQ4uACIiACIiACIiACIiACIiACIiACIiACHRNQAKra0Y6QwREQAREQAREQAREQAREQAREQAREQAREoA8JSGD1IXwNLQIiIAIiIAIiIAIiIAIiIAIiIAIiIAIi0DUBCayuGekMERABERABERABERABERABERABERABERCBPiQggdWH8DW0CIiACIiACIiACIiACIiACIiACIiACIhA1wQksLpmpDNEQAREQAREQAREQAREQAREQAREQAREQAT6kIAEVh/C19AiIAIiIAIiIAIiIAIiIAIiIAIiIAIiIAJdE5DA6pqRzhABERABERABERABERABERABERABERABEehDAhJYfQhfQ4uACIiACIiACIiACIiACIiACIiACIiACHRNQAKra0Y6QwREQAREQAREQAREQAREQAREQAREQAREoA8JSGD1IXwNLQIiIAIiIAIiIAIiIAIiIAIiIAIiIAIi0DUBCayuGekMERABERABERABERABERABERABERABERCBPiQggdWH8DW0CIiACIiACPSEQHUDUN0IuC7gAnDaXMT7Gf/mwd97/9zeeK0/3/Yz3u/aXtO7Tmef7Whsbz49+Wzr+bf9fNu58tzO1h3lA5JigLio9u9CwAUqG4CmYBcX6slNvNA/4wDGJzr0tw4REAEREAEREAER6GsCElh9fQc0vgiIgAiIgAiEQYDy6vkdwJqDQF1D5wLLEzjtSaj2JFJH57f+eUeCq+0SWou1joRaR+ItIvN2gNQ44MqhwOWDgPh2JNbecuDdI0BNM+cwbtPFf6oDxPiBGfnAwBTA3/ZmXfwr1ApEQAREQAREQAQuMgISWBfZDdN0RUAEREAEPtgENh4BvrkUeP/YmRy6Sln1JrVzGbuvPuvxuG4Y8M2ZwLCMswk9vhkoSAJGZLQROK0n3doO8hKd/c4boqNzzuWz3Rk7jHkz3ffOYSDKARYUAgnRvfkE6doiIAIiIAIiIAIi0DUBCayuGekMERABERABEbhgCKzYB9z3JrD95JlTYpUXK916crR1MOFc41w+y3HOZd7n8llv3nMGAt+eCUzIO3vVD68FFg8FBqUCvg9gAmnDUWBnKbBoCJAcE85ToXNFQAREQAREQARE4PwTkMA6/0x1RREQAREQARHoNQIdCaxeG/Dv/MLzBgLf6kBgPbQWuE4CSwLr7/w7oOWJgAiIgAiIwMVCQALrYrlTmqcIiIAIiIAIAJDAOr+PQXcEVmEq4CiBdX7B62oiIAIiIAIiIAIiECYBCawwgel0ERABERABEehLAiv2AvetOLuEsDtzam/Hwu58juf01Wd7e2wKLJYQjm+nhPChdcB1Q4APrMA6Buw8pRLC7n5HdJ4IiIAIiIAIiEDvEpDA6l2+uroIiIAIiIAInFcCXQmszpqidyWhzvWznmxqu+CuxuX55zq2tztiuGPPGwB8e1b7AuvhdcDiD7jAKjoFXKMeWOf1O6yLiYAIiIAIiIAI9IyABFbPuOlTIiACIiACItAnBCiw7l8BbGvTxN2bTFe7+rVtut5aLnX12c5EU3eaubdcvx2j1dXYnV2/q892Nu/OSgg9gfWBbeKuBFaffMc1qAiIgAiIgAiIQPsEJLD0ZIiACIiACIjARUSgtcDqjrhpb2lONOBLBHzRgOsCgSrArW+uE+yCRWhMFwgGEAwGbBfBM9NPDhyfH/D5EecLIsYXQE3Aj0ZukegGkRYDxPuDOFrnRzAQhBMVDbepwX7nOkxi+ULX578371IIXxQcfzR83GfRDcJxfMiNa0RFUxSiEUBNk4sGxMC1HFcH/x+eVmWQrefbWQnhw+tcLB7ihL0LIa9f0wD4fEB8FFBRD8RGAU3B0K6LcVGhnlpBFyivB9JiQ/8ecIGyOiAjPpRI8w7+nDD8PqC2KfRTXqO+KXTN+GjA7wA1jaHf8d+9Z+NULZAaC0Rx4DCPDRJYYRLT6SIgAiIgAiIgAr1JQAKrN+nq2iIgAiIgAiJwngm0buLeE4HFz0THAnGDAX+/0ORq9gMNBwC3oXuTTYhycXm/AEZkBppFCdVRSLlQVK09GoUNx30YnNyEKTlBvHkQyE7wIz3ORWKUgwEpLt4ucTA8I4g/7Y7B7aPqkRYbNKFTG/Ah1k9BQ+MVEjHvn4jC8gPRKEgKYFBKEAcr/biqMIC3SvwYme4iwd+AZ3dEobQpuo1MO3s9bZl12sS9hz2wGgLAqkOwdWQnACsOAnmJQFVjSDQNSwVGZgFNAeDpHcAnx7qI9jmobACe4b+PAaL9obnzWpuPAxUNwNR+wK4y4GQtMCEbYHkfBdbkXCApBnj3cEgmjkgH3jkcEmIbjrsYneGYxBqVAfRL6t495lkSWN1npTNFQAREQAREQAR6n4AEVu8z1ggiIAIiIAIicN4IWA+sN4Htp3p2ySgHiPcBMQNc+MY4cOKB+iNA1RYgUN69FFZiFHBFvosxWa2yTM2RocYA8M4RBwcrXcwraMTiEQ7ePhiA40QjOyGIhiYX/dN8eP9wE8bkx+LeJT58emwQHxsbxJv7fNhbBvRPBcbnuCg66ZhweaHYwSt7gcVDXQyIb8KmI0EsHuXHn7YF0NAUxKcn+rFyv4vniqNQ50aFBabTHlhrXSwe6oTVxJ2JNgqmZ3e6iPNTGDl4aQ8wMCkkoXwOMDEbmFcIkNWP1wAPXB6SRbtKgdf3A9cOBjLjgcvygIRooLgMePsw0D+Z6TXgrUPAkDRg60lgcApw1eBQ0mvJXuBoNXDTcOCtgy6qmxy8sBeYUwDkJwIzC4DcxO7jkcDqPiudKQIiIAIiIAIi0PsEJLB6n7FGEAEREAEREIHzRqCjJu5WftdBJ3O6Jf4JOqHSs2T+c7wLhwKrHxCsAqq3A/VM8DSXqLWeMKvPQnkoHiwfbESK02ClahySv2sODFlJYmWTD+kJ0bhmcBCD0vyIdoLYV+5iRIaLGH8QsVE+1DQEUVLlw0/WxmBKVgA/WuDD5/7WiMqmaMwscLBgMLBsLzA+28FfdwG7yoF7LwGm5gVQVR9E/zQ/dp4MoKw2iDHZUahrdPGr9X68cchnSS4eZ877zFvgoZrfyS6EPWniXtcErCmhwAKy44GBKcDG40BKDFDTFEpg3TAUGJERSmn9qQj4h1HAgCRgbznw12LgqsKQiPrQcCArPiTEyupDiSr+fNMJ4GgNEOsDBiQDXMOecuD948D+SuDKQbA0V2k98Np+YGY/oCAp1Iw9La77j6IEVvdZ6UwREAEREAEREIHeJyCB1fuMNYIIiIAIiIAInDcC7SWwOhM1rQeO8gMpcUA8XDTUA02DHfiHAGgCGkqAqr1AsPbsqbYuu0uMBj4yvAmz+ntKix2rvALC0GerG4G/FUdhSp6LmnpgbI5jEisnkb2gTlu2inoXP3gzCnP6N+KuadF4bksj1h2m9Algav8ovHswgKEZPizZDbxzLAoFKX70TwziplFBVNU04M09Daiqd+FzHPhik7C9LAr7Kk735OqoxLJ1Q/jOm7iH3wOL8mzLCeCJrcDg1JA4pIBiCV8AQEkVcM1gYFxWqLTwuV3AP4wISadjNcDP1wH3THSxdJ+DBQOB+iDw8p6QeGJajH21DlW6WH7QwbC0UFkgJdkftpG7a72u6gMOGoJAIAAcrgmJtKRoliC6mDuw4z5hbe+8BNZ5+9rqQiIgAiIgAiIgAueBgATWeYCoS4iACIiACIhApAi07oHV2ZhnSS2WDsYBmWze3uSipgaoTXIQPQSIjgMCFUDlfqCxAvAFWyeuzhwl2hfqsTQg2UV6rIvZAwMIOlH4a5ELX7AJcHyoD/qxo8zB7eNdxDguUuIcrN7fiMa6Wtw0Lg7HqgJ4d38DGlwftlcm4uFFLuJj/Fi+B0iOAYZmuMhKdHC82kVynIOV+1w8+r6DXWUOChMacf88B8MyHByrcq0HVFIs8P03/Nh4zEHd6ahYt27J3OYE1oS8s0/vyS6EFFgUU09uC0kjlgzmxANZCSGZtbMUJqZm9QdO1QH/8g7w5SnA0v2hJuyrDjNlBuwuB6b3C6WxuOMkywgvzYMJurVHgL0VQHocMDAZuHG4i5f3OJbISo8PnfeXncDJulCjeM6BCbA7JoT+7u5BgcU+W0xu8b7oEAEREAEREAEREIG+JCCB1Zf0NbYIiIAIiIAIhEmgOwKrvUQWNwZMSwUyk4DGGhdl1UBFk4PY/kBCOoB6oO6ki/oTDgJNbXcWPHOSLIOL8bm4LLcRHxvrw++2MPnkYl7/AI5UB7HsYBSCjg/3TnExPNVFab1jomloRhAT8xxU1gOHKlzbbe8LL/vxrelAQaqL5yh9YphScjG1v4Pl+x1MzgFeLgbWHgMamwK4bWwAt4yLQn1TAP9vbSMSfC4+MSUO31rmtx5SXvlgd7F2R2AVMknVzeDS4apQjyo2VC9IBphYK60DDlQAKbEA+4dRCI3LBiobgR+vAr43E9h6ItTX7MU9wCU5wOz+odTVsHRgxylg4zFgRj4sxXaiBnhhNzA2K9TMnXKpLgC8sT9UNrmwEHhwTajvFcdn6eLuMhc/ndvNRTTD23AUKCqVwOrus6TzREAEREAEREAEepeABFbv8tXVRUAEREAEROC8EuhpE/f4BCAvB4jxu6ircnCq3EVFvYPoZCApmykdF8FqoLrUQWN9183cc+MacfuYJrgxcXjoXRduMIhPjGU6K4hfb/RhV0UUPjXWxaIhAWw73ICEuBjsLffjH8YyTeRg6e4gvn2Fg2m/cTCvfxBfnebij+8HkJUchVM1AaQmRWPlfmD2AOBvu4AtJ11MymzAnZN9WHMkGkNTgyhIbMTANAfPbvPhyR1RVroY7tFZE/eHerALIXtUHaoE1hwG2A+rtgk4VAUcqwUS2H8sGuiXCNw9KVR4+Y1lwKBUpqhCOwdS4DFldetoYEBKqGcWe1sx1cUeWAcr2Q/Lxak6x+QU/8zMB64fGjrHdV0sLHRw/0pgTCaQHAtUNQDrjrr42fwwBdYxYOcpYJESWOE+VjpfBERABERABESgFwhIYPUCVF1SBERABERABHqLQHcSWG3HZt+ktAwgLxcINgDlZUBlJZAWDSTFAdVxQA2bsde5qKt2UFdLEdLxChKjgrhlWD2uH+3HL9+qRH0AGJAWjQn5UZiYH40/bnXwt52u9bb6yFg/BqRH40ilDy8UuSawKEVeKWrED6+MxqX/7diOhg9fC7x/JIBDZUHERjv4W3E0yhqAuc0Cq7y2AZ+b4qK2EXhpez1mFzq4cXyClSf+9t1qPLstgL11CXD84dW6ddYD6xfrgOuHILxdCBEqBXxuJ5ARB0uQ/a0Y2F8BlNcDiwYDk3NDKapfbQKGpwOcw6laYOUh4POTgbdLgI0ngM+MDSWumIR6ciswOjMkuiiyWCI4IcfFhGzH+l75fcCLxYAbBBYOBr6/ErAdJ6Mo0kKy8uErw3sqOa4JrKEqIQyPnM4WAREQAREQARHoDQISWL1BVdcUAREQAREQgV4i0JHA4i6AbBLe3hETA+TkAokJsObtZaVAaWWonC0/GYiKdVEaAOrZ2L0OqGlwEOiklxSTQf+2ICRXKF644x1TPocrQz2YGpuAVfuBwgygoi602971I4DjVS4+Nt7BrpNAlC+AKfk+XPGYg0vyXHxjhoPHNwDzCl00OQ7uezNUIseE1Au7gNE5wKh0oLYhgNmD2Rjdh8c2sGTQwS3jgEm5ATyy1sGT23wmeLo6vJ0ZZ3fWA+s9YPGw8AQWx2XJ3rNFQHkdUBsA4vzADcNCiSzuOkip9PHRISmUEA0s3Qu8uh/4wmQXBcmO8XxlD1BcDnxuoot9FY798xUFQGY8mbr4004HE3NcTM5xWsobX6DAckMlhD9aA3xxcuj6bCi/rxL431d0ReXM35vAKlUCKzxqOlsEREAEREAERKC3CEhg9RZZXVcEREAEREAEeoFATxJY7B7u0HA1b8vnsEl7s6CK9gMZyey97qKuDgjUA/VNQKPjoCMPxKbgLHWjLGHvJe525/muzNjQjnssmatqVdI3JDV0XfaoYqP1gYlAYxDYWgpwd8Qkf0j89EtwURNwcLw2lGDKiQMOVYfO5XzyEgA2ki+pDp3PgwmzwiSgIeDiUHXH827vdjDh9e1ZQHtN3FlCuLg5gcU1d/fgGk/UAo2BUIkf/5Azj4YAcJI7AyZS4oV+Rsnn94fO8w6ex5LItNjT/ci8ObCfGBNcvAf84x3stcUjNQ7YXw4UJIUauHPnQ8oy9tQK51AT93Bo6VwREAEREAEREIHeJiCB1duEdX0REAEREAEROI8EeiSwOhmfUojyJDYKcGikGoBgwEG9D3DDkDbncYkRvVRnJYQP9zCBFdEF9OJgSmD1IlxdWgREQAREQAREIGwCElhhI9MHREAEREAERKDvCJxvgdV3K7kwRqbA+vZMYHze2fN5aJ2L64Y4YfXAujBWdX5mwQSWmrifH5a6igiIgAiIgAiIwLkTkMA6d4a6ggiIgAiIgAhEjEBXuxA2VwmeNR+vHLCnoaqgA/i60VuqPRBMcjk9/WzzBXs6767G7mwXwodblRA6PZ1AxJ6M8z+QSgjPP1NdUQREQAREQAREoOcEJLB6zk6fFAEREAEREIGIE2AC6/43gW0n2x+abZU66b/e6Xz5WXqmzlxTR4LM8zs9+Swnda7z7mrNHc27OwJrUGqol9QH7ZDA+qDdca1XBERABERABC5sAhJYF/b90exEQAREQARE4AwCTGD9gALrVOjH4QabuiOaOkPuiaaOhFBvfba35t1pD6x1LhYPcfBBFlgqIdR/gERABERABERABC4UAhJYF8qd0DxEQAREQAREoBsE3j4AfG85sOXEuaWWzpcQ6saUzzrlXNJW5zLv9j57VSHwrZnA6JyzV/LIBhfT+jkYkv7BTGCtPRLaTfGqwUBSqx0Se3LP9RkREAEREAEREAEROFcCEljnSlCfFwEREAEREIEIEjhQ5uLn77hYW+Kgsau6uQjO62IcKi4KWDzMxScmOMhJOrtGcPl+FydrHaTFAa1/21aEtU2jef/eXkqtPYnW+rfsAXoAAAhqSURBVLzWv2/vuh7n1j3NWqfwOhq79fy781mOc7AKGJbmYnKeg1j/xXiHNWcREAEREAEREIG/JwISWH9Pd1NrEQEREAER+LsnEAgEsf1oE4pPAfWBVjWEZi56UtiH03Ym3HpE0j6XSJT3+XOatwO4PZi4AyTGMHnlYFC6Hz4fc2FnHtUNLrYed1FaH9nHqod38bxOknNIIZ9sIDnWd4bAO68D6WIiIAIiIAIiIAIi0E0CEljdBKXTREAEREAEROBCIOC6LgJNAQSCtFfdP85FivTVZ1v8VveXecaZXc2bOwv6/X74/VEdjhAMBnsmyLoxZ2q31ompbnyk26d41+72Bzo40fH54HwQt2A8V3D6vAiIgAiIgAiIwHknIIF13pHqgiIgAiIgAiLQuwQosc5q395sLFwqkeZEUlvvEPqxA8dpk1hq/lcLQnXw+XP5LK/a2ec7G7erz9rvW807tObT6qrzeTtwur29YCtm3eDVs3mffm7OnXfP7vOZ8+7d51hXFwEREAEREAEREIFwCEhghUNL54qACIiACIiACIiACIiACIiACIiACIiACEScgARWxJFrQBEQAREQAREQAREQAREQAREQAREQAREQgXAISGCFQ0vnioAIiIAIiIAIiIAIiIAIiIAIiIAIiIAIRJyABFbEkWtAERABERABERABERABERABERABERABERCBcAhIYIVDS+eKgAiIgAiIgAiIgAiIgAiIgAiIgAiIgAhEnIAEVsSRa0AREAEREAEREAEREAEREAEREAEREAEREIFwCEhghUNL54qACIiACIiACIiACIiACIiACIiACIiACEScgARWxJFrQBEQAREQAREQAREQAREQAREQAREQAREQgXAISGCFQ0vnioAIiIAIiIAIiIAIiIAIiIAIiIAIiIAIRJyABFbEkWtAERABERABERABERABERABERABERABERCBcAhIYIVDS+eKgAiIgAiIgAiIgAiIgAiIgAiIgAiIgAhEnIAEVsSRa0AREAEREAEREAEREAEREAEREAEREAEREIFwCEhghUNL54qACIiACIiACIiACIiACIiACIiACIiACEScgARWxJFrQBEQAREQAREQAREQAREQAREQAREQAREQgXAISGCFQ0vnioAIiIAIiIAIiIAIiIAIiIAIiIAIiIAIRJyABFbEkWtAERABERABERABERABERABERABERABERCBcAhIYIVDS+eKgAiIgAiIgAiIgAiIgAiIgAiIgAiIgAhEnIAEVsSRa0AREAEREAEREAEREAEREAEREAEREAEREIFwCEhghUNL54qACIiACIiACIiACIiACIiACIiACIiACEScgARWxJFrQBEQAREQAREQAREQAREQAREQAREQAREQgXAISGCFQ0vnioAIiIAIiIAIiIAIiIAIiIAIiIAIiIAIRJyABFbEkWtAERABERABERABERABERABERABERABERCBcAhIYIVDS+eKgAiIgAiIgAiIgAiIgAiIgAiIgAiIgAhEnIAEVsSRa0AREAEREAEREAEREAEREAEREAEREAEREIFwCEhghUNL54qACIiACIiACIiACIiACIiACIiACIiACEScgARWxJFrQBEQAREQAREQAREQAREQAREQAREQAREQgXAISGCFQ0vnioAIiIAIiIAIiIAIiIAIiIAIiIAIiIAIRJyABFbEkWtAERABERABERABERABERABERABERABERCBcAhIYIVDS+eKgAiIgAiIgAiIgAiIgAiIgAiIgAiIgAhEnIAEVsSRa0AREAEREAEREAEREAEREAEREAEREAEREIFwCEhghUNL54qACIiACIiACIiACIiACIiACIiACIiACEScgARWxJFrQBEQAREQAREQAREQAREQAREQAREQAREQgXAISGCFQ0vnioAIiIAIiIAIiIAIiIAIiIAIiIAIiIAIRJyABFbEkWtAERABERABERABERABERABERABERABERCBcAhIYIVDS+eKgAiIgAiIgAiIgAiIgAiIgAiIgAiIgAhEnIAEVsSRa0AREAEREAEREAEREAEREAEREAEREAEREIFwCEhghUNL54qACIiACIiACIiACIiACIiACIiACIiACEScgARWxJFrQBEQAREQAREQAREQAREQAREQAREQAREQgXAISGCFQ0vnioAIiIAIiIAIiIAIiIAIiIAIiIAIiIAIRJyABFbEkWtAERABERABERABERABERABERABERABERCBcAhIYIVDS+eKgAiIgAiIgAiIgAiIgAiIgAiIgAiIgAhEnIAEVsSRa0AREAEREAEREAEREAEREAEREAEREAEREIFwCEhghUNL54qACIiACIiACIiACIiACIiACIiACIiACEScgARWxJFrQBEQAREQAREQAREQAREQAREQAREQAREQgXAISGCFQ0vnioAIiIAIiIAIiIAIiIAIiIAIiIAIiIAIRJyABFbEkWtAERABERABERABERABERABERABERABERCBcAhIYIVDS+eKgAiIgAiIgAiIgAiIgAiIgAiIgAiIgAhEnIAEVsSRa0AREAEREAEREAEREAEREAEREAEREAEREIFwCEhghUNL54qACIiACIiACIiACIiACIiACIiACIiACEScgARWxJFrQBEQAREQAREQAREQAREQAREQAREQAREQgXAISGCFQ0vnioAIiIAIiIAIiIAIiIAIiIAIiIAIiIAIRJyABFbEkWtAERABERABERABERABERABERABERABERCBcAhIYIVDS+eKgAiIgAiIgAiIgAiIgAiIgAiIgAiIgAhEnIAEVsSRa0AREAEREAEREAEREAEREAEREAEREAEREIFwCPx/b1k3jaunh4kAAAAASUVORK5CYII=;" parent="1" vertex="1">
          <mxGeometry x="295" y="780" width="964.71" height="246" as="geometry" />
        </mxCell>
        <mxCell id="IaWIAxoh5WjSrk8VG9qD-2" value="" style="rounded=0;whiteSpace=wrap;html=1;" vertex="1" parent="1">
          <mxGeometry x="80" y="1080" width="700" height="580" as="geometry" />
        </mxCell>
        <mxCell id="IaWIAxoh5WjSrk8VG9qD-3" value="模块ID" style="text;html=1;strokeColor=none;fillColor=none;align=center;verticalAlign=middle;whiteSpace=wrap;rounded=0;" vertex="1" parent="1">
          <mxGeometry x="120" y="1190" width="60" height="30" as="geometry" />
        </mxCell>
        <mxCell id="IaWIAxoh5WjSrk8VG9qD-4" value="模块名称" style="text;html=1;strokeColor=none;fillColor=none;align=center;verticalAlign=middle;whiteSpace=wrap;rounded=0;" vertex="1" parent="1">
          <mxGeometry x="220" y="1190" width="60" height="30" as="geometry" />
        </mxCell>
        <mxCell id="IaWIAxoh5WjSrk8VG9qD-5" value="代码库" style="text;html=1;strokeColor=none;fillColor=none;align=center;verticalAlign=middle;whiteSpace=wrap;rounded=0;" vertex="1" parent="1">
          <mxGeometry x="320" y="1190" width="60" height="30" as="geometry" />
        </mxCell>
        <mxCell id="IaWIAxoh5WjSrk8VG9qD-6" value="分支" style="text;html=1;strokeColor=none;fillColor=none;align=center;verticalAlign=middle;whiteSpace=wrap;rounded=0;" vertex="1" parent="1">
          <mxGeometry x="410" y="1190" width="60" height="30" as="geometry" />
        </mxCell>
        <mxCell id="IaWIAxoh5WjSrk8VG9qD-7" value="创建时间" style="text;html=1;strokeColor=none;fillColor=none;align=center;verticalAlign=middle;whiteSpace=wrap;rounded=0;" vertex="1" parent="1">
          <mxGeometry x="510" y="1190" width="60" height="30" as="geometry" />
        </mxCell>
        <mxCell id="IaWIAxoh5WjSrk8VG9qD-8" value="操作" style="text;html=1;strokeColor=none;fillColor=none;align=center;verticalAlign=middle;whiteSpace=wrap;rounded=0;" vertex="1" parent="1">
          <mxGeometry x="620" y="1190" width="60" height="30" as="geometry" />
        </mxCell>
        <mxCell id="IaWIAxoh5WjSrk8VG9qD-9" value="" style="line;strokeWidth=2;html=1;" vertex="1" parent="1">
          <mxGeometry x="80" y="1225" width="700" height="10" as="geometry" />
        </mxCell>
        <mxCell id="IaWIAxoh5WjSrk8VG9qD-10" value="7150002" style="text;html=1;strokeColor=none;fillColor=none;align=center;verticalAlign=middle;whiteSpace=wrap;rounded=0;" vertex="1" parent="1">
          <mxGeometry x="110" y="1250" width="60" height="30" as="geometry" />
        </mxCell>
        <mxCell id="IaWIAxoh5WjSrk8VG9qD-11" value="法务场景" style="text;html=1;strokeColor=none;fillColor=none;align=center;verticalAlign=middle;whiteSpace=wrap;rounded=0;" vertex="1" parent="1">
          <mxGeometry x="210" y="1250" width="60" height="30" as="geometry" />
        </mxCell>
        <mxCell id="IaWIAxoh5WjSrk8VG9qD-12" value="code.abc.com" style="text;html=1;strokeColor=none;fillColor=none;align=center;verticalAlign=middle;whiteSpace=wrap;rounded=0;" vertex="1" parent="1">
          <mxGeometry x="320" y="1250" width="60" height="30" as="geometry" />
        </mxCell>
        <mxCell id="IaWIAxoh5WjSrk8VG9qD-13" value="master" style="text;html=1;strokeColor=none;fillColor=none;align=center;verticalAlign=middle;whiteSpace=wrap;rounded=0;" vertex="1" parent="1">
          <mxGeometry x="410" y="1250" width="60" height="30" as="geometry" />
        </mxCell>
        <mxCell id="IaWIAxoh5WjSrk8VG9qD-14" value="2023-02-15 16:52:02" style="text;html=1;strokeColor=none;fillColor=none;align=center;verticalAlign=middle;whiteSpace=wrap;rounded=0;" vertex="1" parent="1">
          <mxGeometry x="490" y="1250" width="120" height="30" as="geometry" />
        </mxCell>
        <mxCell id="IaWIAxoh5WjSrk8VG9qD-15" value="云端研发" style="rounded=1;whiteSpace=wrap;html=1;" vertex="1" parent="1">
          <mxGeometry x="640" y="1255" width="50" height="20" as="geometry" />
        </mxCell>
        <mxCell id="IaWIAxoh5WjSrk8VG9qD-16" value="详情" style="rounded=1;whiteSpace=wrap;html=1;" vertex="1" parent="1">
          <mxGeometry x="700" y="1255" width="50" height="20" as="geometry" />
        </mxCell>
        <mxCell id="IaWIAxoh5WjSrk8VG9qD-19" value="" style="rounded=0;whiteSpace=wrap;html=1;" vertex="1" parent="1">
          <mxGeometry x="152.5" y="1090" width="85" height="30" as="geometry" />
        </mxCell>
        <mxCell id="IaWIAxoh5WjSrk8VG9qD-20" value="模块名称" style="text;html=1;strokeColor=none;fillColor=none;align=center;verticalAlign=middle;whiteSpace=wrap;rounded=0;" vertex="1" parent="1">
          <mxGeometry x="92.5" y="1090" width="60" height="30" as="geometry" />
        </mxCell>
        <mxCell id="IaWIAxoh5WjSrk8VG9qD-25" value="" style="rounded=0;whiteSpace=wrap;html=1;" vertex="1" parent="1">
          <mxGeometry x="810" y="1080" width="790" height="580" as="geometry" />
        </mxCell>
        <mxCell id="IaWIAxoh5WjSrk8VG9qD-26" value="模块ID" style="text;html=1;strokeColor=none;fillColor=none;align=center;verticalAlign=middle;whiteSpace=wrap;rounded=0;" vertex="1" parent="1">
          <mxGeometry x="850" y="1190" width="60" height="30" as="geometry" />
        </mxCell>
        <mxCell id="IaWIAxoh5WjSrk8VG9qD-27" value="模块" style="text;html=1;strokeColor=none;fillColor=none;align=center;verticalAlign=middle;whiteSpace=wrap;rounded=0;" vertex="1" parent="1">
          <mxGeometry x="950" y="1190" width="60" height="30" as="geometry" />
        </mxCell>
        <mxCell id="IaWIAxoh5WjSrk8VG9qD-28" value="版本" style="text;html=1;strokeColor=none;fillColor=none;align=center;verticalAlign=middle;whiteSpace=wrap;rounded=0;" vertex="1" parent="1">
          <mxGeometry x="1050" y="1190" width="60" height="30" as="geometry" />
        </mxCell>
        <mxCell id="IaWIAxoh5WjSrk8VG9qD-29" value="分支" style="text;html=1;strokeColor=none;fillColor=none;align=center;verticalAlign=middle;whiteSpace=wrap;rounded=0;" vertex="1" parent="1">
          <mxGeometry x="1140" y="1190" width="60" height="30" as="geometry" />
        </mxCell>
        <mxCell id="IaWIAxoh5WjSrk8VG9qD-30" value="构建时间" style="text;html=1;strokeColor=none;fillColor=none;align=center;verticalAlign=middle;whiteSpace=wrap;rounded=0;" vertex="1" parent="1">
          <mxGeometry x="1320" y="1190" width="60" height="30" as="geometry" />
        </mxCell>
        <mxCell id="IaWIAxoh5WjSrk8VG9qD-31" value="操作" style="text;html=1;strokeColor=none;fillColor=none;align=center;verticalAlign=middle;whiteSpace=wrap;rounded=0;" vertex="1" parent="1">
          <mxGeometry x="1430" y="1190" width="60" height="30" as="geometry" />
        </mxCell>
        <mxCell id="IaWIAxoh5WjSrk8VG9qD-32" value="" style="line;strokeWidth=2;html=1;" vertex="1" parent="1">
          <mxGeometry x="810" y="1225" width="700" height="10" as="geometry" />
        </mxCell>
        <mxCell id="IaWIAxoh5WjSrk8VG9qD-33" value="7150002" style="text;html=1;strokeColor=none;fillColor=none;align=center;verticalAlign=middle;whiteSpace=wrap;rounded=0;" vertex="1" parent="1">
          <mxGeometry x="840" y="1250" width="60" height="30" as="geometry" />
        </mxCell>
        <mxCell id="IaWIAxoh5WjSrk8VG9qD-34" value="法务场景" style="text;html=1;strokeColor=none;fillColor=none;align=center;verticalAlign=middle;whiteSpace=wrap;rounded=0;" vertex="1" parent="1">
          <mxGeometry x="940" y="1250" width="60" height="30" as="geometry" />
        </mxCell>
        <mxCell id="IaWIAxoh5WjSrk8VG9qD-35" value="1.0.0-20230926170630" style="text;html=1;strokeColor=none;fillColor=none;align=center;verticalAlign=middle;whiteSpace=wrap;rounded=0;" vertex="1" parent="1">
          <mxGeometry x="1050" y="1250" width="60" height="30" as="geometry" />
        </mxCell>
        <mxCell id="IaWIAxoh5WjSrk8VG9qD-36" value="master" style="text;html=1;strokeColor=none;fillColor=none;align=center;verticalAlign=middle;whiteSpace=wrap;rounded=0;" vertex="1" parent="1">
          <mxGeometry x="1140" y="1250" width="60" height="30" as="geometry" />
        </mxCell>
        <mxCell id="IaWIAxoh5WjSrk8VG9qD-37" value="2023-02-15 16:52:02" style="text;html=1;strokeColor=none;fillColor=none;align=center;verticalAlign=middle;whiteSpace=wrap;rounded=0;" vertex="1" parent="1">
          <mxGeometry x="1300" y="1250" width="120" height="30" as="geometry" />
        </mxCell>
        <mxCell id="IaWIAxoh5WjSrk8VG9qD-38" value="组件查看" style="rounded=1;whiteSpace=wrap;html=1;" vertex="1" parent="1">
          <mxGeometry x="1450" y="1255" width="50" height="20" as="geometry" />
        </mxCell>
        <mxCell id="IaWIAxoh5WjSrk8VG9qD-39" value="构建详情" style="rounded=1;whiteSpace=wrap;html=1;" vertex="1" parent="1">
          <mxGeometry x="1510" y="1255" width="50" height="20" as="geometry" />
        </mxCell>
        <mxCell id="IaWIAxoh5WjSrk8VG9qD-41" value="law-component&amp;nbsp;" style="text;html=1;strokeColor=none;fillColor=none;align=center;verticalAlign=middle;whiteSpace=wrap;rounded=0;" vertex="1" parent="1">
          <mxGeometry x="822.5" y="1090" width="107.5" height="30" as="geometry" />
        </mxCell>
        <mxCell id="IaWIAxoh5WjSrk8VG9qD-42" value="查询" style="rounded=1;whiteSpace=wrap;html=1;" vertex="1" parent="1">
          <mxGeometry x="275" y="1090" width="70" height="30" as="geometry" />
        </mxCell>
        <mxCell id="IaWIAxoh5WjSrk8VG9qD-43" value="法务场景" style="text;html=1;strokeColor=none;fillColor=none;align=center;verticalAlign=middle;whiteSpace=wrap;rounded=0;" vertex="1" parent="1">
          <mxGeometry x="816.25" y="1120" width="107.5" height="30" as="geometry" />
        </mxCell>
        <mxCell id="IaWIAxoh5WjSrk8VG9qD-44" value="予行" style="text;html=1;strokeColor=none;fillColor=none;align=center;verticalAlign=middle;whiteSpace=wrap;rounded=0;" vertex="1" parent="1">
          <mxGeometry x="900" y="1120" width="107.5" height="30" as="geometry" />
        </mxCell>
        <mxCell id="IaWIAxoh5WjSrk8VG9qD-45" value="" style="shape=actor;whiteSpace=wrap;html=1;" vertex="1" parent="1">
          <mxGeometry x="920" y="1130" width="10" height="10" as="geometry" />
        </mxCell>
        <mxCell id="IaWIAxoh5WjSrk8VG9qD-48" value="" style="shape=message;html=1;html=1;outlineConnect=0;labelPosition=center;verticalLabelPosition=bottom;align=center;verticalAlign=top;" vertex="1" parent="1">
          <mxGeometry x="820" y="1130" width="20" height="10" as="geometry" />
        </mxCell>
        <mxCell id="IaWIAxoh5WjSrk8VG9qD-49" value="2023-09-26" style="text;html=1;strokeColor=none;fillColor=none;align=center;verticalAlign=middle;whiteSpace=wrap;rounded=0;" vertex="1" parent="1">
          <mxGeometry x="970" y="1120" width="107.5" height="30" as="geometry" />
        </mxCell>
        <mxCell id="IaWIAxoh5WjSrk8VG9qD-50" value="分支:master" style="text;html=1;strokeColor=none;fillColor=none;align=center;verticalAlign=middle;whiteSpace=wrap;rounded=0;" vertex="1" parent="1">
          <mxGeometry x="1060" y="1120" width="107.5" height="30" as="geometry" />
        </mxCell>
        <mxCell id="IaWIAxoh5WjSrk8VG9qD-51" value="代码：code.abc.com" style="text;html=1;strokeColor=none;fillColor=none;align=center;verticalAlign=middle;whiteSpace=wrap;rounded=0;" vertex="1" parent="1">
          <mxGeometry x="1152.21" y="1120" width="147.79" height="30" as="geometry" />
        </mxCell>
        <mxCell id="IaWIAxoh5WjSrk8VG9qD-52" value="构建记录" style="text;html=1;strokeColor=none;fillColor=none;align=center;verticalAlign=middle;whiteSpace=wrap;rounded=0;" vertex="1" parent="1">
          <mxGeometry x="796.25" y="1160" width="107.5" height="30" as="geometry" />
        </mxCell>
        <mxCell id="IaWIAxoh5WjSrk8VG9qD-53" value="comitId" style="text;html=1;strokeColor=none;fillColor=none;align=center;verticalAlign=middle;whiteSpace=wrap;rounded=0;" vertex="1" parent="1">
          <mxGeometry x="1211" y="1195" width="60" height="30" as="geometry" />
        </mxCell>
      </root>
    </mxGraphModel>
  </diagram>
</mxfile>
